<svg width="222" height="75" viewBox="0 0 222 75" fill="none" xmlns="http://www.w3.org/2000/svg">
<path d="M33.9167 35.6051L25.6071 36.1165C25.465 35.4062 25.1596 34.767 24.6909 34.1989C24.2221 33.6165 23.6042 33.1548 22.8372 32.8139C22.0843 32.4588 21.1824 32.2812 20.1312 32.2812C18.725 32.2812 17.5389 32.5795 16.573 33.1761C15.6071 33.7585 15.1241 34.5398 15.1241 35.5199C15.1241 36.3011 15.4366 36.9616 16.0616 37.5014C16.6866 38.0412 17.7591 38.4744 19.2789 38.8011L25.2022 39.9943C28.3841 40.6477 30.7562 41.6989 32.3187 43.1477C33.8812 44.5966 34.6625 46.5 34.6625 48.858C34.6625 51.0028 34.0304 52.8849 32.7662 54.5043C31.5162 56.1236 29.7974 57.3878 27.6099 58.2969C25.4366 59.1918 22.9295 59.6392 20.0886 59.6392C15.7562 59.6392 12.3045 58.7372 9.73349 56.9332C7.17667 55.1151 5.67809 52.6435 5.23775 49.5185L14.1653 49.0497C14.4352 50.3707 15.0886 51.3793 16.1255 52.0753C17.1625 52.7571 18.4906 53.098 20.1099 53.098C21.7008 53.098 22.9792 52.7926 23.9451 52.1818C24.9252 51.5568 25.4224 50.7543 25.4366 49.7741C25.4224 48.9503 25.0744 48.2756 24.3926 47.75C23.7108 47.2102 22.6596 46.7983 21.2392 46.5142L15.5716 45.3849C12.3755 44.7457 9.99627 43.6378 8.43377 42.0611C6.88548 40.4844 6.11133 38.4744 6.11133 36.0312C6.11133 33.929 6.67951 32.1179 7.81587 30.598C8.96644 29.0781 10.5787 27.9063 12.6525 27.0824C14.7406 26.2585 17.1838 25.8466 19.9821 25.8466C24.1156 25.8466 27.3684 26.7202 29.7406 28.4673C32.127 30.2145 33.519 32.5937 33.9167 35.6051ZM55.2928 59.6392C51.9263 59.6392 49.0286 58.9574 46.5996 57.5938C44.1848 56.2159 42.324 54.2699 41.0172 51.7557C39.7104 49.2273 39.057 46.2372 39.057 42.7855C39.057 39.419 39.7104 36.4645 41.0172 33.9219C42.324 31.3793 44.1635 29.3977 46.5357 27.9773C48.9221 26.5568 51.7203 25.8466 54.9306 25.8466C57.0897 25.8466 59.0996 26.1946 60.9604 26.8906C62.8354 27.5724 64.4689 28.6023 65.861 29.9801C67.2672 31.358 68.361 33.0909 69.1422 35.179C69.9235 37.2528 70.3141 39.6818 70.3141 42.4659V44.9588H42.6792V39.3338H61.7701C61.7701 38.027 61.486 36.8693 60.9178 35.8608C60.3496 34.8523 59.5613 34.0639 58.5527 33.4957C57.5584 32.9134 56.4007 32.6222 55.0797 32.6222C53.7019 32.6222 52.4803 32.9418 51.415 33.581C50.3638 34.206 49.54 35.0511 48.9434 36.1165C48.3468 37.1676 48.0414 38.3395 48.0272 39.6321V44.9801C48.0272 46.5994 48.3255 47.9986 48.9221 49.1776C49.5328 50.3565 50.3922 51.2656 51.5002 51.9048C52.6081 52.544 53.9221 52.8636 55.4419 52.8636C56.4505 52.8636 57.3738 52.7216 58.2118 52.4375C59.0499 52.1534 59.7672 51.7273 60.3638 51.1591C60.9604 50.5909 61.415 49.8949 61.7275 49.071L70.1223 49.625C69.6962 51.642 68.8226 53.4034 67.5016 54.9091C66.1948 56.4006 64.5044 57.5653 62.4306 58.4034C60.3709 59.2273 57.9917 59.6392 55.2928 59.6392ZM93.6451 26.2727V33.0909H73.9363V26.2727H93.6451ZM78.4107 18.4318H87.4874V48.9432C87.4874 49.7812 87.6152 50.4347 87.8709 50.9034C88.1266 51.358 88.4817 51.6776 88.9363 51.8622C89.405 52.0469 89.9448 52.1392 90.5556 52.1392C90.9817 52.1392 91.4078 52.1037 91.834 52.0327C92.2601 51.9474 92.5868 51.8835 92.8141 51.8409L94.2417 58.5952C93.7871 58.7372 93.1479 58.9006 92.324 59.0852C91.5002 59.2841 90.4988 59.4048 89.3198 59.4474C87.1323 59.5327 85.2147 59.2415 83.5669 58.5739C81.9334 57.9062 80.6621 56.8693 79.753 55.4631C78.8439 54.0568 78.3965 52.2812 78.4107 50.1364V18.4318Z" fill="black"/>
<path d="M145.406 59V26.2727H154.206V31.983H154.547C155.144 29.9517 156.145 28.4176 157.551 27.3807C158.957 26.3295 160.577 25.804 162.409 25.804C162.864 25.804 163.354 25.8324 163.879 25.8892C164.405 25.946 164.867 26.0241 165.264 26.1236V34.1776C164.838 34.0497 164.249 33.9361 163.496 33.8366C162.743 33.7372 162.054 33.6875 161.429 33.6875C160.094 33.6875 158.901 33.9787 157.85 34.5611C156.813 35.1293 155.989 35.9247 155.378 36.9474C154.781 37.9702 154.483 39.1491 154.483 40.4844V59H145.406ZM169.957 59V26.2727H179.034V59H169.957ZM174.517 22.054C173.167 22.054 172.01 21.6065 171.044 20.7116C170.092 19.8026 169.616 18.7159 169.616 17.4517C169.616 16.2017 170.092 15.1293 171.044 14.2344C172.01 13.3253 173.167 12.8707 174.517 12.8707C175.866 12.8707 177.017 13.3253 177.968 14.2344C178.934 15.1293 179.417 16.2017 179.417 17.4517C179.417 18.7159 178.934 19.8026 177.968 20.7116C177.017 21.6065 175.866 22.054 174.517 22.054ZM195.381 40.0795V59H186.305V26.2727H194.955V32.0469H195.339C196.063 30.1435 197.278 28.6378 198.982 27.5298C200.687 26.4077 202.754 25.8466 205.183 25.8466C207.455 25.8466 209.437 26.3437 211.127 27.3381C212.818 28.3324 214.131 29.7528 215.069 31.5994C216.006 33.4318 216.475 35.6193 216.475 38.1619V59H207.399V39.7812C207.413 37.7784 206.901 36.2159 205.864 35.0938C204.828 33.9574 203.4 33.3892 201.582 33.3892C200.36 33.3892 199.281 33.652 198.343 34.1776C197.42 34.7031 196.695 35.4702 196.17 36.4787C195.658 37.473 195.396 38.6733 195.381 40.0795Z" fill="black"/>
<ellipse cx="119.542" cy="42.1738" rx="9.55231" ry="9.57011" fill="#FFE200"/>
<path d="M133.147 51.5739C135.345 48.3889 136.358 44.5336 136.01 40.6799C135.661 36.8261 133.974 33.2182 131.241 30.4848C128.508 27.7514 124.903 26.0659 121.054 25.7219C117.206 25.3779 113.358 26.3972 110.18 28.6023M133.147 51.5739L131.266 46.8631M133.147 51.5739L138.385 49.4699M105.951 32.8576C103.764 36.046 102.762 39.9 103.119 43.7492C103.476 47.5985 105.169 51.1995 107.903 53.9258C110.638 56.6522 114.241 58.3314 118.087 58.6713C121.932 59.0113 125.776 57.9905 128.949 55.7865M105.951 32.8576L107.823 37.5403M105.951 32.8576L100.754 34.9454" stroke="#016F2F" stroke-width="5" stroke-linecap="round" stroke-linejoin="round"/>
</svg>
