<svg width="29" height="29" viewBox="0 0 29 29" fill="none" xmlns="http://www.w3.org/2000/svg">
<circle cx="14.5" cy="14.5" r="14.5" fill="#016F2F"/>
<path d="M11.8818 15.1041C11.8818 14.4098 12.1577 13.7439 12.6486 13.2529C13.1396 12.7619 13.8055 12.4861 14.4999 12.4861C15.1942 12.4861 15.8602 12.7619 16.3511 13.2529C16.8421 13.7439 17.1179 14.4098 17.1179 15.1041C17.1179 15.7985 16.8421 16.4644 16.3511 16.9554C15.8602 17.4464 15.1942 17.7222 14.4999 17.7222C13.8055 17.7222 13.1396 17.4464 12.6486 16.9554C12.1577 16.4644 11.8818 15.7985 11.8818 15.1041Z" fill="white"/>
<path d="M11.1825 6.44446H17.8171L19.0254 8.86112H23.3609V21.75H5.63867V8.86112H9.97417L11.1825 6.44446ZM10.2706 15.1042C10.2706 16.2258 10.7162 17.3015 11.5093 18.0947C12.3024 18.8878 13.3781 19.3333 14.4998 19.3333C15.6214 19.3333 16.6971 18.8878 17.4903 18.0947C18.2834 17.3015 18.7289 16.2258 18.7289 15.1042C18.7289 13.9825 18.2834 12.9068 17.4903 12.1137C16.6971 11.3206 15.6214 10.875 14.4998 10.875C13.3781 10.875 12.3024 11.3206 11.5093 12.1137C10.7162 12.9068 10.2706 13.9825 10.2706 15.1042Z" fill="white"/>
</svg>
