<svg width="44" height="44" viewBox="0 0 44 44" fill="none" xmlns="http://www.w3.org/2000/svg">
<circle cx="22" cy="22" r="22" fill="#016F2F"/>
<path d="M12.2486 17.3365C13.2253 15.4316 14.7232 13.8302 16.5749 12.7113C18.4266 11.5923 20.5593 10.9999 22.7347 11C25.8972 11 28.5539 12.1396 30.5852 13.9957L27.2209 17.294C26.004 16.1543 24.4573 15.5736 22.7347 15.5736C19.6778 15.5736 17.0903 17.5976 16.1691 20.315C15.9344 21.005 15.8007 21.741 15.8007 22.5C15.8007 23.259 15.9344 23.995 16.1691 24.685C17.0915 27.4036 19.6778 29.4265 22.7347 29.4265C24.313 29.4265 25.6566 29.0182 26.7081 28.3282C27.3176 27.9349 27.8394 27.4246 28.242 26.828C28.6446 26.2315 28.9196 25.5611 29.0503 24.8575H22.7347V20.4093H33.7864C33.9249 21.1614 34 21.9457 34 22.7611C34 26.264 32.7209 29.2125 30.5007 31.2135C28.5598 32.9707 25.9031 34 22.7347 34C21.1935 34.0006 19.6673 33.7036 18.2433 33.1258C16.8193 32.5481 15.5254 31.7011 14.4356 30.6331C13.3458 29.5651 12.4815 28.2971 11.892 26.9016C11.3025 25.5061 10.9994 24.0104 11 22.5C11 20.6439 11.453 18.889 12.2486 17.3365Z" fill="white"/>
</svg>
