<svg width="90" height="96" viewBox="0 0 90 96" fill="none" xmlns="http://www.w3.org/2000/svg">
<g filter="url(#filter0_d_25_369)">
<circle cx="45" cy="43" r="35" fill="#016F2F"/>
</g>
<path d="M30.9206 95H27.8269V86.2727H30.9462C31.824 86.2727 32.5797 86.4474 33.2132 86.7969C33.8468 87.1435 34.334 87.642 34.6749 88.2926C35.0186 88.9432 35.1905 89.7216 35.1905 90.6278C35.1905 91.5369 35.0186 92.3182 34.6749 92.9716C34.334 93.625 33.8439 94.1264 33.2047 94.4759C32.5684 94.8253 31.807 95 30.9206 95ZM29.6721 93.419H30.8439C31.3894 93.419 31.8482 93.3224 32.2203 93.1293C32.5953 92.9332 32.8766 92.6307 33.0641 92.2216C33.2544 91.8097 33.3496 91.2784 33.3496 90.6278C33.3496 89.983 33.2544 89.456 33.0641 89.0469C32.8766 88.6378 32.5968 88.3366 32.2246 88.1435C31.8525 87.9503 31.3936 87.8537 30.8482 87.8537H29.6721V93.419ZM40.7207 92.2131V88.4545H42.536V95H40.7931V93.8111H40.725C40.5772 94.1946 40.3315 94.5028 39.9877 94.7358C39.6468 94.9687 39.2306 95.0852 38.7392 95.0852C38.3017 95.0852 37.9167 94.9858 37.5843 94.7869C37.252 94.5881 36.992 94.3054 36.8045 93.9389C36.6199 93.5724 36.5261 93.1335 36.5233 92.6222V88.4545H38.3386V92.2983C38.3414 92.6847 38.4451 92.9901 38.6497 93.2145C38.8542 93.4389 39.1284 93.5511 39.4721 93.5511C39.6909 93.5511 39.8954 93.5014 40.0858 93.402C40.2761 93.2997 40.4295 93.1491 40.546 92.9503C40.6653 92.7514 40.7235 92.5057 40.7207 92.2131ZM43.9881 95V88.4545H45.8034V95H43.9881ZM44.9 87.6108C44.6301 87.6108 44.3986 87.5213 44.2054 87.3423C44.0151 87.1605 43.9199 86.9432 43.9199 86.6903C43.9199 86.4403 44.0151 86.2259 44.2054 86.0469C44.3986 85.8651 44.6301 85.7741 44.9 85.7741C45.1699 85.7741 45.4 85.8651 45.5904 86.0469C45.7836 86.2259 45.8801 86.4403 45.8801 86.6903C45.8801 86.9432 45.7836 87.1605 45.5904 87.3423C45.4 87.5213 45.1699 87.6108 44.9 87.6108ZM50.7392 88.4545V89.8182H46.7974V88.4545H50.7392ZM47.6923 86.8864H49.5076V92.9886C49.5076 93.1562 49.5332 93.2869 49.5843 93.3807C49.6355 93.4716 49.7065 93.5355 49.7974 93.5724C49.8912 93.6094 49.9991 93.6278 50.1213 93.6278C50.2065 93.6278 50.2917 93.6207 50.377 93.6065C50.4622 93.5895 50.5275 93.5767 50.573 93.5682L50.8585 94.919C50.7676 94.9474 50.6397 94.9801 50.475 95.017C50.3102 95.0568 50.1099 95.081 49.8741 95.0895C49.4366 95.1065 49.0531 95.0483 48.7235 94.9148C48.3968 94.7812 48.1426 94.5739 47.9608 94.2926C47.7789 94.0114 47.6895 93.6562 47.6923 93.2273V86.8864ZM51.9217 95V88.4545H53.737V95H51.9217ZM52.8336 87.6108C52.5637 87.6108 52.3322 87.5213 52.139 87.3423C51.9487 87.1605 51.8535 86.9432 51.8535 86.6903C51.8535 86.4403 51.9487 86.2259 52.139 86.0469C52.3322 85.8651 52.5637 85.7741 52.8336 85.7741C53.1035 85.7741 53.3336 85.8651 53.524 86.0469C53.7172 86.2259 53.8137 86.4403 53.8137 86.6903C53.8137 86.9432 53.7172 87.1605 53.524 87.3423C53.3336 87.5213 53.1035 87.6108 52.8336 87.6108ZM57.0066 91.2159V95H55.1912V88.4545H56.9213V89.6094H56.998C57.1429 89.2287 57.3858 88.9276 57.7267 88.706C58.0676 88.4815 58.481 88.3693 58.9668 88.3693C59.4213 88.3693 59.8176 88.4688 60.1557 88.6676C60.4938 88.8665 60.7566 89.1506 60.9441 89.5199C61.1316 89.8864 61.2253 90.3239 61.2253 90.8324V95H59.41V91.1562C59.4128 90.7557 59.3105 90.4432 59.1032 90.2188C58.8958 89.9915 58.6103 89.8778 58.2466 89.8778C58.0023 89.8778 57.7864 89.9304 57.5989 90.0355C57.4142 90.1406 57.2694 90.294 57.1642 90.4957C57.062 90.6946 57.0094 90.9347 57.0066 91.2159Z" fill="#016F2F"/>
<circle cx="45.2744" cy="43.2694" r="10.3654" fill="#FFE200"/>
<path d="M60.04 53.4596C62.4228 50.0103 63.5198 45.8344 63.1399 41.6594C62.7599 37.4844 60.9272 33.575 57.9609 30.6125C54.9946 27.65 51.083 25.8222 46.9075 25.4476C42.732 25.073 38.5574 26.1753 35.1112 28.5625M60.04 53.4596L57.9965 48.3553M60.04 53.4596L65.7209 51.1829M30.5249 33.1702C28.1544 36.6231 27.0693 40.7977 27.4583 44.9679C27.8474 49.138 29.6859 53.0399 32.6541 55.9947C35.6223 58.9496 39.5324 60.7705 43.7042 61.1407C47.8761 61.5109 52.0458 60.4071 55.4879 58.0211M30.5249 33.1702L32.5582 38.244M30.5249 33.1702L24.8877 35.4294" stroke="#67DF99" stroke-width="4" stroke-linecap="round" stroke-linejoin="round"/>
<defs>
<filter id="filter0_d_25_369" x="0" y="0" width="90" height="90" filterUnits="userSpaceOnUse" color-interpolation-filters="sRGB">
<feFlood flood-opacity="0" result="BackgroundImageFix"/>
<feColorMatrix in="SourceAlpha" type="matrix" values="0 0 0 0 0 0 0 0 0 0 0 0 0 0 0 0 0 0 127 0" result="hardAlpha"/>
<feOffset dy="2"/>
<feGaussianBlur stdDeviation="5"/>
<feComposite in2="hardAlpha" operator="out"/>
<feColorMatrix type="matrix" values="0 0 0 0 0 0 0 0 0 0 0 0 0 0 0 0 0 0 0.25 0"/>
<feBlend mode="normal" in2="BackgroundImageFix" result="effect1_dropShadow_25_369"/>
<feBlend mode="normal" in="SourceGraphic" in2="effect1_dropShadow_25_369" result="shape"/>
</filter>
</defs>
</svg>
