<svg width="43" height="43" viewBox="0 0 43 43" fill="none" xmlns="http://www.w3.org/2000/svg">
<circle cx="21.4804" cy="21.4766" r="9.56655" fill="#FFE200"/>
<path d="M35.1084 30.8811C37.3076 27.6977 38.32 23.8435 37.9694 19.9903C37.6187 16.137 35.9272 12.529 33.1895 9.79477C30.4519 7.06059 26.8417 5.37365 22.988 5.02791C19.1343 4.68217 15.2814 5.69955 12.1008 7.90276M35.1084 30.8811L33.2224 26.1702M35.1084 30.8811L40.3515 28.7799M7.86792 12.1554C5.68014 15.3421 4.67866 19.195 5.03769 23.0438C5.39673 26.8926 7.09355 30.4937 9.83301 33.2209C12.5725 35.948 16.1812 37.6286 20.0316 37.9703C23.8819 38.312 27.7303 37.2932 30.9072 35.091M7.86792 12.1554L9.74457 16.8382M7.86792 12.1554L2.66518 14.2404" stroke="#016F2F" stroke-width="4.5" stroke-linecap="round" stroke-linejoin="round"/>
</svg>
