<svg width="100" height="20" viewBox="0 0 100 20" fill="none" xmlns="http://www.w3.org/2000/svg">
<rect x="0.5" y="0.5" width="99" height="19" rx="4.5" fill="#004D20" stroke="#67DF99"/>
<path d="M12.7191 13V6.45455H13.7067V9.29901H16.9698V6.45455H17.9606V13H16.9698V10.146H13.7067V13H12.7191ZM22.4318 10.9641V8.09091H23.3906V13H22.451V12.1499H22.3999C22.2869 12.4119 22.1058 12.6303 21.8565 12.805C21.6094 12.9776 21.3015 13.0639 20.9329 13.0639C20.6175 13.0639 20.3384 12.9947 20.0955 12.8562C19.8548 12.7156 19.6651 12.5078 19.5266 12.233C19.3903 11.9581 19.3221 11.6183 19.3221 11.2134V8.09091H20.2777V11.0984C20.2777 11.4329 20.3704 11.6992 20.5558 11.8974C20.7411 12.0955 20.9819 12.1946 21.2781 12.1946C21.457 12.1946 21.6349 12.1499 21.8118 12.0604C21.9908 11.9709 22.1388 11.8356 22.256 11.6545C22.3754 11.4734 22.4339 11.2433 22.4318 10.9641ZM24.7513 13V6.45455H25.7069V8.88672H25.7645C25.8199 8.78445 25.8998 8.66619 26.0042 8.53196C26.1086 8.39773 26.2535 8.28054 26.4388 8.1804C26.6242 8.07812 26.8692 8.02699 27.1739 8.02699C27.5702 8.02699 27.9239 8.12713 28.235 8.32741C28.5461 8.5277 28.79 8.81641 28.9669 9.19354C29.1459 9.57067 29.2354 10.0245 29.2354 10.555C29.2354 11.0856 29.1469 11.5405 28.9701 11.9197C28.7932 12.2969 28.5503 12.5877 28.2414 12.7923C27.9324 12.9947 27.5798 13.0959 27.1835 13.0959C26.8852 13.0959 26.6412 13.0458 26.4516 12.9457C26.2641 12.8455 26.1171 12.7283 26.0106 12.5941C25.904 12.4599 25.822 12.3406 25.7645 12.2362H25.6846V13H24.7513ZM25.6878 10.5455C25.6878 10.8906 25.7378 11.1932 25.838 11.4531C25.9381 11.7131 26.083 11.9165 26.2726 12.0636C26.4623 12.2085 26.6945 12.2809 26.9694 12.2809C27.2549 12.2809 27.4935 12.2053 27.6853 12.054C27.877 11.9006 28.0219 11.6928 28.1199 11.4308C28.2201 11.1687 28.2702 10.8736 28.2702 10.5455C28.2702 10.2216 28.2211 9.93075 28.1231 9.67294C28.0273 9.41513 27.8824 9.21165 27.6885 9.0625C27.4967 8.91335 27.257 8.83878 26.9694 8.83878C26.6924 8.83878 26.458 8.91016 26.2662 9.05291C26.0766 9.19567 25.9328 9.39489 25.8348 9.65057C25.7368 9.90625 25.6878 10.2045 25.6878 10.5455ZM33.4181 10.9641V8.09091H34.377V13H33.4373V12.1499H33.3862C33.2733 12.4119 33.0922 12.6303 32.8429 12.805C32.5957 12.9776 32.2878 13.0639 31.9192 13.0639C31.6039 13.0639 31.3248 12.9947 31.0819 12.8562C30.8411 12.7156 30.6515 12.5078 30.513 12.233C30.3766 11.9581 30.3084 11.6183 30.3084 11.2134V8.09091H31.264V11.0984C31.264 11.4329 31.3567 11.6992 31.5421 11.8974C31.7275 12.0955 31.9682 12.1946 32.2644 12.1946C32.4434 12.1946 32.6213 12.1499 32.7981 12.0604C32.9771 11.9709 33.1252 11.8356 33.2424 11.6545C33.3617 11.4734 33.4203 11.2433 33.4181 10.9641ZM36.6166 10.0852V13H35.661V8.09091H36.5782V8.88991H36.6389C36.7519 8.62997 36.9287 8.42116 37.1695 8.26349C37.4124 8.10582 37.7181 8.02699 38.0867 8.02699C38.4213 8.02699 38.7142 8.0973 38.9656 8.23793C39.2171 8.37642 39.412 8.5831 39.5505 8.85795C39.689 9.13281 39.7583 9.47266 39.7583 9.87749V13H38.8026V9.99254C38.8026 9.63672 38.71 9.35866 38.5246 9.15838C38.3392 8.95597 38.0846 8.85476 37.7607 8.85476C37.5392 8.85476 37.3421 8.9027 37.1695 8.99858C36.999 9.09446 36.8637 9.23509 36.7636 9.42045C36.6656 9.60369 36.6166 9.82528 36.6166 10.0852ZM43.0981 14.9432C42.7082 14.9432 42.3726 14.892 42.0914 14.7898C41.8122 14.6875 41.5843 14.5522 41.4074 14.3839C41.2306 14.2156 41.0985 14.0313 41.0111 13.831L41.8325 13.4922C41.89 13.5859 41.9667 13.685 42.0626 13.7894C42.1606 13.896 42.2927 13.9865 42.4589 14.0611C42.6272 14.1357 42.8435 14.1729 43.1077 14.1729C43.4699 14.1729 43.7693 14.0845 44.0058 13.9077C44.2423 13.733 44.3605 13.4538 44.3605 13.0703V12.1051H44.2998C44.2423 12.2095 44.1592 12.3256 44.0505 12.4535C43.944 12.5813 43.797 12.6921 43.6095 12.7859C43.422 12.8796 43.178 12.9265 42.8776 12.9265C42.4898 12.9265 42.1404 12.8359 41.8293 12.6548C41.5203 12.4716 41.2753 12.2021 41.0942 11.8462C40.9152 11.4883 40.8257 11.0483 40.8257 10.5263C40.8257 10.0043 40.9142 9.55682 41.091 9.18395C41.27 8.81108 41.515 8.52557 41.8261 8.32741C42.1372 8.12713 42.4898 8.02699 42.884 8.02699C43.1887 8.02699 43.4347 8.07812 43.6222 8.1804C43.8097 8.28054 43.9557 8.39773 44.0601 8.53196C44.1666 8.66619 44.2487 8.78445 44.3062 8.88672H44.3765V8.09091H45.3129V13.1087C45.3129 13.5305 45.2149 13.8768 45.0189 14.1474C44.8229 14.418 44.5576 14.6183 44.2231 14.7482C43.8907 14.8782 43.5157 14.9432 43.0981 14.9432ZM43.0885 12.1339C43.3634 12.1339 43.5956 12.07 43.7852 11.9421C43.977 11.8121 44.1219 11.6268 44.2199 11.386C44.32 11.1431 44.3701 10.8523 44.3701 10.5135C44.3701 10.1832 44.3211 9.8924 44.2231 9.64098C44.1251 9.38956 43.9813 9.19354 43.7916 9.05291C43.602 8.91016 43.3676 8.83878 43.0885 8.83878C42.8009 8.83878 42.5612 8.91335 42.3694 9.0625C42.1776 9.20952 42.0328 9.4098 41.9347 9.66335C41.8389 9.9169 41.7909 10.2003 41.7909 10.5135C41.7909 10.8352 41.8399 11.1175 41.9379 11.3604C42.036 11.6033 42.1808 11.793 42.3726 11.9293C42.5665 12.0657 42.8051 12.1339 43.0885 12.1339ZM46.5945 13V8.09091H47.5502V13H46.5945ZM47.0771 7.33345C46.911 7.33345 46.7682 7.27805 46.6489 7.16726C46.5317 7.05433 46.4731 6.9201 46.4731 6.76456C46.4731 6.60689 46.5317 6.47266 46.6489 6.36186C46.7682 6.24893 46.911 6.19247 47.0771 6.19247C47.2433 6.19247 47.385 6.24893 47.5022 6.36186C47.6215 6.47266 47.6812 6.60689 47.6812 6.76456C47.6812 6.9201 47.6215 7.05433 47.5022 7.16726C47.385 7.27805 47.2433 7.33345 47.0771 7.33345ZM51.2943 13V6.45455H52.2819V9.58026H52.3618L55.1072 6.45455H56.3504L53.7105 9.40128L56.36 13H55.1711L53.0553 10.0756L52.2819 10.9641V13H51.2943ZM58.6228 13.1087C58.3117 13.1087 58.0305 13.0511 57.779 12.9361C57.5276 12.8189 57.3284 12.6495 57.1814 12.4279C57.0365 12.2063 56.964 11.9347 56.964 11.6129C56.964 11.3359 57.0173 11.108 57.1238 10.929C57.2304 10.75 57.3742 10.6083 57.5553 10.5039C57.7364 10.3995 57.9388 10.3207 58.1626 10.2674C58.3863 10.2141 58.6143 10.1737 58.8465 10.146C59.1405 10.1119 59.3792 10.0842 59.5624 10.0629C59.7457 10.0394 59.8788 10.0021 59.9619 9.95099C60.045 9.89986 60.0866 9.81676 60.0866 9.7017V9.67933C60.0866 9.40021 60.0077 9.18395 59.8501 9.03054C59.6945 8.87713 59.4623 8.80043 59.1533 8.80043C58.8316 8.80043 58.578 8.8718 58.3927 9.01456C58.2094 9.15518 58.0827 9.31179 58.0123 9.48438L57.1143 9.27983C57.2208 8.98153 57.3763 8.74077 57.5809 8.55753C57.7876 8.37216 58.0251 8.23793 58.2936 8.15483C58.5621 8.0696 58.8444 8.02699 59.1405 8.02699C59.3366 8.02699 59.5443 8.05043 59.7638 8.0973C59.9854 8.14205 60.192 8.22514 60.3838 8.34659C60.5777 8.46804 60.7364 8.64169 60.86 8.86754C60.9836 9.09126 61.0454 9.3821 61.0454 9.74006V13H60.1121V12.3288H60.0738C60.012 12.4524 59.9193 12.5739 59.7957 12.6932C59.6721 12.8125 59.5134 12.9116 59.3195 12.9904C59.1256 13.0692 58.8934 13.1087 58.6228 13.1087ZM58.8305 12.3416C59.0947 12.3416 59.3206 12.2894 59.5081 12.185C59.6977 12.0806 59.8415 11.9442 59.9395 11.7759C60.0397 11.6055 60.0898 11.4233 60.0898 11.2294V10.5966C60.0557 10.6307 59.9896 10.6626 59.8916 10.6925C59.7957 10.7202 59.686 10.7447 59.5624 10.766C59.4388 10.7852 59.3184 10.8033 59.2013 10.8203C59.0841 10.8352 58.9861 10.848 58.9072 10.8587C58.7219 10.8821 58.5525 10.9215 58.3991 10.9769C58.2478 11.0323 58.1263 11.1122 58.0347 11.2166C57.9452 11.3189 57.9005 11.4553 57.9005 11.6257C57.9005 11.8622 57.9878 12.0412 58.1626 12.1626C58.3373 12.282 58.5599 12.3416 58.8305 12.3416ZM62.3182 13V8.09091H63.2354V8.88991H63.2962C63.3984 8.61932 63.5657 8.40838 63.7979 8.2571C64.0302 8.10369 64.3082 8.02699 64.6321 8.02699C64.9602 8.02699 65.2351 8.10369 65.4567 8.2571C65.6804 8.41051 65.8455 8.62145 65.9521 8.88991H66.0032C66.1204 8.62784 66.3068 8.41903 66.5625 8.26349C66.8182 8.10582 67.1229 8.02699 67.4766 8.02699C67.9219 8.02699 68.2852 8.16655 68.5664 8.44567C68.8498 8.72479 68.9915 9.1456 68.9915 9.7081V13H68.0359V9.79759C68.0359 9.4652 67.9453 9.22443 67.7642 9.07528C67.5831 8.92614 67.3668 8.85156 67.1154 8.85156C66.8043 8.85156 66.5625 8.94744 66.3899 9.1392C66.2173 9.32884 66.131 9.5728 66.131 9.87109V13H65.1786V9.73686C65.1786 9.47053 65.0955 9.25639 64.9293 9.09446C64.7631 8.93253 64.5469 8.85156 64.2805 8.85156C64.0994 8.85156 63.9322 8.8995 63.7788 8.99538C63.6275 9.08913 63.505 9.22017 63.4112 9.38849C63.3196 9.55682 63.2738 9.75178 63.2738 9.97337V13H62.3182ZM70.2723 13V8.09091H71.2279V13H70.2723ZM70.7549 7.33345C70.5887 7.33345 70.4459 7.27805 70.3266 7.16726C70.2094 7.05433 70.1508 6.9201 70.1508 6.76456C70.1508 6.60689 70.2094 6.47266 70.3266 6.36186C70.4459 6.24893 70.5887 6.19247 70.7549 6.19247C70.9211 6.19247 71.0628 6.24893 71.18 6.36186C71.2993 6.47266 71.3589 6.60689 71.3589 6.76456C71.3589 6.9201 71.2993 7.05433 71.18 7.16726C71.0628 7.27805 70.9211 7.33345 70.7549 7.33345Z" fill="white"/>
<path d="M87.3536 10.3536C87.5488 10.1583 87.5488 9.84171 87.3536 9.64645L84.1716 6.46447C83.9763 6.2692 83.6597 6.2692 83.4645 6.46447C83.2692 6.65973 83.2692 6.97631 83.4645 7.17157L86.2929 10L83.4645 12.8284C83.2692 13.0237 83.2692 13.3403 83.4645 13.5355C83.6597 13.7308 83.9763 13.7308 84.1716 13.5355L87.3536 10.3536ZM78 10L78 10.5L87 10.5L87 10L87 9.5L78 9.5L78 10Z" fill="white"/>
</svg>
