<svg width="100" height="20" viewBox="0 0 100 20" fill="none" xmlns="http://www.w3.org/2000/svg">
<rect x="0.5" y="0.5" width="99" height="19" rx="4.5" fill="#004D20" stroke="#67DF99"/>
<path d="M12.7191 13V6.45455H13.7067V12.1499H16.6726V13H12.7191ZM17.7225 13V8.09091H18.6781V13H17.7225ZM18.2051 7.33345C18.0389 7.33345 17.8961 7.27805 17.7768 7.16726C17.6596 7.05433 17.601 6.9201 17.601 6.76456C17.601 6.60689 17.6596 6.47266 17.7768 6.36186C17.8961 6.24893 18.0389 6.19247 18.2051 6.19247C18.3713 6.19247 18.513 6.24893 18.6301 6.36186C18.7495 6.47266 18.8091 6.60689 18.8091 6.76456C18.8091 6.9201 18.7495 7.05433 18.6301 7.16726C18.513 7.27805 18.3713 7.33345 18.2051 7.33345ZM20.9193 10.0852V13H19.9637V6.45455H20.9065V8.88991H20.9672C21.0823 8.62571 21.2581 8.41584 21.4946 8.2603C21.7311 8.10476 22.04 8.02699 22.4214 8.02699C22.7581 8.02699 23.0521 8.09624 23.3035 8.23473C23.5571 8.37322 23.7531 8.5799 23.8916 8.85476C24.0322 9.12749 24.1025 9.46839 24.1025 9.87749V13H23.1469V9.99254C23.1469 9.63246 23.0542 9.35334 22.8689 9.15518C22.6835 8.9549 22.4257 8.85476 22.0954 8.85476C21.8696 8.85476 21.6672 8.9027 21.4882 8.99858C21.3113 9.09446 21.1718 9.23509 21.0695 9.42045C20.9694 9.60369 20.9193 9.82528 20.9193 10.0852ZM26.8064 13.1087C26.4953 13.1087 26.214 13.0511 25.9626 12.9361C25.7112 12.8189 25.512 12.6495 25.365 12.4279C25.2201 12.2063 25.1476 11.9347 25.1476 11.6129C25.1476 11.3359 25.2009 11.108 25.3074 10.929C25.414 10.75 25.5578 10.6083 25.7389 10.5039C25.92 10.3995 26.1224 10.3207 26.3461 10.2674C26.5699 10.2141 26.7979 10.1737 27.0301 10.146C27.3241 10.1119 27.5628 10.0842 27.746 10.0629C27.9292 10.0394 28.0624 10.0021 28.1455 9.95099C28.2286 9.89986 28.2702 9.81676 28.2702 9.7017V9.67933C28.2702 9.40021 28.1913 9.18395 28.0336 9.03054C27.8781 8.87713 27.6459 8.80043 27.3369 8.80043C27.0152 8.80043 26.7616 8.8718 26.5763 9.01456C26.393 9.15518 26.2662 9.31179 26.1959 9.48438L25.2979 9.27983C25.4044 8.98153 25.5599 8.74077 25.7645 8.55753C25.9711 8.37216 26.2087 8.23793 26.4772 8.15483C26.7456 8.0696 27.028 8.02699 27.3241 8.02699C27.5202 8.02699 27.7279 8.05043 27.9474 8.0973C28.1689 8.14205 28.3756 8.22514 28.5674 8.34659C28.7613 8.46804 28.92 8.64169 29.0436 8.86754C29.1672 9.09126 29.229 9.3821 29.229 9.74006V13H28.2957V12.3288H28.2574C28.1956 12.4524 28.1029 12.5739 27.9793 12.6932C27.8557 12.8125 27.697 12.9116 27.5031 12.9904C27.3092 13.0692 27.077 13.1087 26.8064 13.1087ZM27.0141 12.3416C27.2783 12.3416 27.5042 12.2894 27.6917 12.185C27.8813 12.0806 28.0251 11.9442 28.1231 11.7759C28.2233 11.6055 28.2733 11.4233 28.2733 11.2294V10.5966C28.2393 10.6307 28.1732 10.6626 28.0752 10.6925C27.9793 10.7202 27.8696 10.7447 27.746 10.766C27.6224 10.7852 27.502 10.8033 27.3849 10.8203C27.2677 10.8352 27.1697 10.848 27.0908 10.8587C26.9055 10.8821 26.7361 10.9215 26.5827 10.9769C26.4314 11.0323 26.3099 11.1122 26.2183 11.2166C26.1288 11.3189 26.0841 11.4553 26.0841 11.6257C26.0841 11.8622 26.1714 12.0412 26.3461 12.1626C26.5209 12.282 26.7435 12.3416 27.0141 12.3416ZM32.7933 8.09091V8.85795H30.1119V8.09091H32.7933ZM30.831 6.91477H31.7866V11.5586C31.7866 11.744 31.8143 11.8835 31.8697 11.9773C31.9251 12.0689 31.9964 12.1317 32.0838 12.1658C32.1733 12.1978 32.2702 12.2138 32.3746 12.2138C32.4513 12.2138 32.5185 12.2085 32.576 12.1978C32.6335 12.1871 32.6783 12.1786 32.7102 12.1722L32.8828 12.9616C32.8274 12.983 32.7486 13.0043 32.6463 13.0256C32.544 13.049 32.4162 13.0618 32.2628 13.0639C32.0114 13.0682 31.777 13.0234 31.5597 12.9297C31.3423 12.8359 31.1665 12.6911 31.0323 12.495C30.8981 12.299 30.831 12.0529 30.831 11.7567V6.91477ZM39.9109 9.28942L39.0447 9.44283C39.0085 9.33203 38.951 9.22656 38.8722 9.12642C38.7955 9.02628 38.6911 8.94425 38.5589 8.88033C38.4268 8.81641 38.2617 8.78445 38.0636 8.78445C37.793 8.78445 37.5671 8.84517 37.386 8.96662C37.2049 9.08594 37.1143 9.24041 37.1143 9.43004C37.1143 9.59411 37.1751 9.72621 37.2965 9.82635C37.418 9.92649 37.614 10.0085 37.8846 10.0724L38.6644 10.2514C39.1161 10.3558 39.4528 10.5167 39.6744 10.734C39.896 10.9513 40.0067 11.2337 40.0067 11.581C40.0067 11.875 39.9215 12.1371 39.7511 12.3672C39.5827 12.5952 39.3473 12.7741 39.0447 12.9041C38.7443 13.0341 38.396 13.0991 37.9996 13.0991C37.4499 13.0991 37.0014 12.9819 36.6541 12.7475C36.3068 12.511 36.0938 12.1754 36.0149 11.7408L36.9386 11.6001C36.9961 11.8409 37.1143 12.0231 37.2933 12.1467C37.4723 12.2681 37.7056 12.3288 37.9933 12.3288C38.3065 12.3288 38.5568 12.2638 38.7443 12.1339C38.9318 12.0018 39.0256 11.8409 39.0256 11.6513C39.0256 11.4979 38.968 11.369 38.853 11.2646C38.7401 11.1602 38.5664 11.0813 38.332 11.0281L37.5011 10.8459C37.043 10.7415 36.7042 10.5753 36.4847 10.3473C36.2674 10.1193 36.1587 9.83061 36.1587 9.48118C36.1587 9.19141 36.2397 8.93785 36.4016 8.72053C36.5636 8.5032 36.7873 8.33381 37.0728 8.21236C37.3583 8.08878 37.6854 8.02699 38.054 8.02699C38.5845 8.02699 39.0021 8.14205 39.3068 8.37216C39.6115 8.60014 39.8129 8.90589 39.9109 9.28942ZM43.1732 13.0991C42.6895 13.0991 42.273 12.9957 41.9236 12.7891C41.5763 12.5803 41.3078 12.2873 41.1182 11.9102C40.9307 11.5309 40.8369 11.0866 40.8369 10.5774C40.8369 10.0746 40.9307 9.63139 41.1182 9.24787C41.3078 8.86435 41.572 8.56499 41.9108 8.34979C42.2517 8.13459 42.6501 8.02699 43.1061 8.02699C43.3831 8.02699 43.6515 8.0728 43.9115 8.16442C44.1714 8.25604 44.4047 8.39986 44.6114 8.59588C44.8181 8.7919 44.9811 9.04652 45.1004 9.35973C45.2197 9.67081 45.2794 10.049 45.2794 10.4943V10.8331H41.377V10.1172H44.343C44.343 9.86577 44.2918 9.64311 44.1895 9.44922C44.0873 9.2532 43.9434 9.09872 43.7581 8.9858C43.5748 8.87287 43.3596 8.81641 43.1125 8.81641C42.844 8.81641 42.6096 8.88246 42.4094 9.01456C42.2112 9.14453 42.0578 9.31499 41.9491 9.52592C41.8426 9.73473 41.7893 9.96165 41.7893 10.2067V10.766C41.7893 11.0941 41.8469 11.3732 41.9619 11.6033C42.0791 11.8335 42.2421 12.0092 42.4509 12.1307C42.6597 12.25 42.9037 12.3097 43.1828 12.3097C43.3639 12.3097 43.529 12.2841 43.6782 12.233C43.8273 12.1797 43.9562 12.1009 44.0649 11.9964C44.1736 11.892 44.2567 11.7631 44.3142 11.6097L45.2187 11.7727C45.1462 12.0391 45.0162 12.2724 44.8287 12.4727C44.6434 12.6708 44.4101 12.8253 44.1288 12.9361C43.8497 13.0447 43.5312 13.0991 43.1732 13.0991ZM46.3397 13V8.09091H47.2569V8.88991H47.3176C47.4199 8.61932 47.5872 8.40838 47.8194 8.2571C48.0517 8.10369 48.3297 8.02699 48.6536 8.02699C48.9817 8.02699 49.2566 8.10369 49.4782 8.2571C49.7019 8.41051 49.867 8.62145 49.9735 8.88991H50.0247C50.1419 8.62784 50.3283 8.41903 50.584 8.26349C50.8397 8.10582 51.1444 8.02699 51.498 8.02699C51.9434 8.02699 52.3066 8.16655 52.5879 8.44567C52.8713 8.72479 53.013 9.1456 53.013 9.7081V13H52.0574V9.79759C52.0574 9.4652 51.9668 9.22443 51.7857 9.07528C51.6046 8.92614 51.3883 8.85156 51.1369 8.85156C50.8258 8.85156 50.584 8.94744 50.4114 9.1392C50.2388 9.32884 50.1525 9.5728 50.1525 9.87109V13H49.2001V9.73686C49.2001 9.47053 49.117 9.25639 48.9508 9.09446C48.7846 8.93253 48.5684 8.85156 48.302 8.85156C48.1209 8.85156 47.9537 8.8995 47.8002 8.99538C47.649 9.08913 47.5265 9.22017 47.4327 9.38849C47.3411 9.55682 47.2953 9.75178 47.2953 9.97337V13H46.3397ZM57.4035 10.9641V8.09091H58.3623V13H57.4227V12.1499H57.3715C57.2586 12.4119 57.0775 12.6303 56.8282 12.805C56.5811 12.9776 56.2732 13.0639 55.9046 13.0639C55.5892 13.0639 55.3101 12.9947 55.0672 12.8562C54.8264 12.7156 54.6368 12.5078 54.4983 12.233C54.3619 11.9581 54.2938 11.6183 54.2938 11.2134V8.09091H55.2494V11.0984C55.2494 11.4329 55.3421 11.6992 55.5274 11.8974C55.7128 12.0955 55.9536 12.1946 56.2497 12.1946C56.4287 12.1946 56.6066 12.1499 56.7835 12.0604C56.9624 11.9709 57.1105 11.8356 57.2277 11.6545C57.347 11.4734 57.4056 11.2433 57.4035 10.9641ZM61.0749 13.1087C60.7638 13.1087 60.4826 13.0511 60.2312 12.9361C59.9798 12.8189 59.7805 12.6495 59.6335 12.4279C59.4886 12.2063 59.4162 11.9347 59.4162 11.6129C59.4162 11.3359 59.4695 11.108 59.576 10.929C59.6825 10.75 59.8263 10.6083 60.0075 10.5039C60.1886 10.3995 60.391 10.3207 60.6147 10.2674C60.8384 10.2141 61.0664 10.1737 61.2987 10.146C61.5927 10.1119 61.8313 10.0842 62.0146 10.0629C62.1978 10.0394 62.331 10.0021 62.4141 9.95099C62.4972 9.89986 62.5387 9.81676 62.5387 9.7017V9.67933C62.5387 9.40021 62.4599 9.18395 62.3022 9.03054C62.1467 8.87713 61.9144 8.80043 61.6055 8.80043C61.2837 8.80043 61.0302 8.8718 60.8448 9.01456C60.6616 9.15518 60.5348 9.31179 60.4645 9.48438L59.5664 9.27983C59.6729 8.98153 59.8285 8.74077 60.033 8.55753C60.2397 8.37216 60.4773 8.23793 60.7457 8.15483C61.0142 8.0696 61.2965 8.02699 61.5927 8.02699C61.7887 8.02699 61.9964 8.05043 62.2159 8.0973C62.4375 8.14205 62.6442 8.22514 62.8359 8.34659C63.0298 8.46804 63.1886 8.64169 63.3121 8.86754C63.4357 9.09126 63.4975 9.3821 63.4975 9.74006V13H62.5643V12.3288H62.5259C62.4641 12.4524 62.3714 12.5739 62.2479 12.6932C62.1243 12.8125 61.9656 12.9116 61.7717 12.9904C61.5778 13.0692 61.3455 13.1087 61.0749 13.1087ZM61.2827 12.3416C61.5469 12.3416 61.7727 12.2894 61.9602 12.185C62.1499 12.0806 62.2937 11.9442 62.3917 11.7759C62.4918 11.6055 62.5419 11.4233 62.5419 11.2294V10.5966C62.5078 10.6307 62.4418 10.6626 62.3438 10.6925C62.2479 10.7202 62.1381 10.7447 62.0146 10.766C61.891 10.7852 61.7706 10.8033 61.6534 10.8203C61.5362 10.8352 61.4382 10.848 61.3594 10.8587C61.174 10.8821 61.0046 10.9215 60.8512 10.9769C60.6999 11.0323 60.5785 11.1122 60.4869 11.2166C60.3974 11.3189 60.3526 11.4553 60.3526 11.6257C60.3526 11.8622 60.44 12.0412 60.6147 12.1626C60.7894 12.282 61.0121 12.3416 61.2827 12.3416Z" fill="white"/>
<path d="M87.3536 10.3536C87.5488 10.1583 87.5488 9.84171 87.3536 9.64645L84.1716 6.46447C83.9763 6.2692 83.6597 6.2692 83.4645 6.46447C83.2692 6.65973 83.2692 6.97631 83.4645 7.17157L86.2929 10L83.4645 12.8284C83.2692 13.0237 83.2692 13.3403 83.4645 13.5355C83.6597 13.7308 83.9763 13.7308 84.1716 13.5355L87.3536 10.3536ZM70 10V10.5H87V10V9.5H70V10Z" fill="white"/>
</svg>
