<svg width="23" height="23" viewBox="0 0 23 23" fill="none" xmlns="http://www.w3.org/2000/svg">
<path d="M1.24857 6.3365C2.22534 4.43157 3.72321 2.83021 5.57492 1.71127C7.42663 0.592334 9.55927 -0.00014546 11.7347 2.67874e-08C14.8972 2.67874e-08 17.5539 1.13965 19.5852 2.99575L16.2209 6.29395C15.004 5.1543 13.4573 4.57355 11.7347 4.57355C8.67781 4.57355 6.09031 6.59755 5.16913 9.315C4.93444 10.005 4.80066 10.741 4.80066 11.5C4.80066 12.259 4.93444 12.995 5.16913 13.685C6.09148 16.4036 8.67781 18.4265 11.7347 18.4265C13.313 18.4265 14.6566 18.0182 15.7081 17.3282C16.3176 16.9349 16.8394 16.4246 17.242 15.828C17.6446 15.2315 17.9196 14.5611 18.0503 13.8575H11.7347V9.4093H22.7864C22.9249 10.1614 23 10.9457 23 11.7611C23 15.264 21.7209 18.2125 19.5007 20.2135C17.5598 21.9707 14.9031 23 11.7347 23C10.1935 23.0006 8.66729 22.7036 7.24329 22.1258C5.81929 21.5481 4.52543 20.7011 3.43564 19.6331C2.34585 18.5651 1.4815 17.2971 0.891995 15.9016C0.30249 14.5061 -0.000615909 13.0104 9.39614e-07 11.5C9.39614e-07 9.6439 0.45296 7.889 1.24857 6.3365Z" fill="white"/>
</svg>
