<svg width="284" height="302" viewBox="0 0 284 302" fill="none" xmlns="http://www.w3.org/2000/svg">
<circle cx="133.309" cy="159.351" r="32.8623" fill="white"/>
<path d="M185.672 158.691C185.685 147.844 182.417 137.288 176.363 128.618L199.724 103.652C204.29 105.707 209.18 106.799 214.128 106.868C218.603 107.019 223.062 106.219 227.251 104.514C231.439 102.808 235.274 100.231 238.536 96.9283C241.799 93.626 244.425 89.6637 246.265 85.2679C248.104 80.8721 249.121 76.1291 249.258 71.3098C249.258 61.2773 245.556 51.6558 238.968 44.5618C232.38 37.4677 223.445 33.4824 214.128 33.4824C204.811 33.4824 195.875 37.4677 189.287 44.5618C182.699 51.6558 178.998 61.2773 178.998 71.3098C179.02 77.1603 180.474 82.9011 183.213 87.9539L159.852 113.109C151.64 108.16 142.388 105.555 132.977 105.544C121.358 105.371 110.011 109.339 100.704 116.831C91.3956 124.322 84.6485 134.916 81.512 146.965H69.3922C66.7394 139.901 62.1675 133.865 56.2753 129.647C50.3831 125.428 43.4452 123.224 36.37 123.323C27.3608 123.016 18.6058 126.566 12.0217 133.195C5.4376 139.824 1.56084 148.991 1.24009 158.691C1.37637 163.51 2.39338 168.254 4.233 172.649C6.07262 177.045 8.69877 181.007 11.9613 184.31C15.2239 187.612 19.0589 190.189 23.2471 191.895C27.4353 193.6 31.8946 194.4 36.37 194.249C43.4452 194.348 50.3831 192.143 56.2753 187.925C62.1675 183.706 66.7394 177.67 69.3922 170.607H81.512C84.6485 182.655 91.3956 193.249 100.704 200.741C110.011 208.232 121.358 212.2 132.977 212.028C139.691 212.255 146.38 211.055 152.662 208.497C158.944 205.939 164.697 202.072 169.591 197.119C174.484 192.165 178.424 186.222 181.183 179.628C183.942 173.035 185.468 165.92 185.672 158.691ZM214.128 59.5833C217.317 59.2671 220.493 60.323 222.961 62.5202C225.43 64.7175 226.99 67.8775 227.301 71.3098C226.789 74.6744 225.183 77.7335 222.77 79.9408C220.357 82.1482 217.294 83.3601 214.128 83.3601C210.961 83.3601 207.898 82.1482 205.485 79.9408C203.072 77.7335 201.466 74.6744 200.954 71.3098C201.309 67.8972 202.881 64.7665 205.339 62.5786C207.797 60.3907 210.948 59.3167 214.128 59.5833ZM36.37 170.607C33.1632 170.871 29.988 169.771 27.5253 167.543C25.0627 165.316 23.5086 162.138 23.1963 158.691C23.5511 155.279 25.1235 152.148 27.5814 149.96C30.0394 147.772 33.1906 146.698 36.37 146.965C39.5495 146.698 42.7007 147.772 45.1587 149.96C47.6166 152.148 49.1889 155.279 49.5438 158.691C49.2315 162.138 47.6774 165.316 45.2147 167.543C42.7521 169.771 39.5769 170.871 36.37 170.607ZM132.977 188.386C125.253 188.799 117.69 185.911 111.933 180.35C106.176 174.789 102.692 167.004 102.239 158.691C102.692 150.393 106.182 142.628 111.944 137.097C117.706 131.566 125.27 128.721 132.977 129.186C140.673 128.771 148.211 131.633 153.963 137.154C159.715 142.675 163.218 150.412 163.716 158.691C163.218 166.987 159.721 174.742 153.974 180.293C148.228 185.844 140.69 188.749 132.977 188.386Z" fill="#FFE200"/>
<circle cx="34.7224" cy="159.971" r="16.1211" fill="white"/>
<path fill-rule="evenodd" clip-rule="evenodd" d="M37.4463 154.663C37.4463 156.312 36.1165 157.646 34.4922 157.646C32.8594 157.646 31.538 156.312 31.538 154.663C31.538 153.015 32.8594 151.681 34.4922 151.681C36.1249 151.681 37.4463 153.015 37.4463 154.663ZM33.6253 159.672L26.8922 156.269V164.834L33.6253 168.237V159.672ZM35.3085 168.262L42.0921 164.834V156.269L35.3085 159.697V168.262Z" fill="#016F2F"/>
<circle cx="34.4921" cy="154.674" r="3.45453" fill="#FFE200"/>
<path d="M35.5492 89.1839C40.5664 89.219 45.5336 88.1096 50.1243 85.9288L81.4076 120.203C85.9294 113.679 91.4613 108.044 97.7602 103.545L66.8325 70.0361C69.6043 64.9209 71.0756 59.109 71.0984 53.1861C70.7738 43.3663 66.8507 34.0851 60.1881 27.3742C53.5254 20.6633 44.666 17.0696 35.5492 17.3797C26.4324 17.0696 17.5729 20.6633 10.9103 27.3742C4.2476 34.0851 0.324576 43.3663 0 53.1861C0.137904 58.065 1.16706 62.8668 3.02863 67.3169C4.8902 71.7671 7.54769 75.7785 10.8492 79.1216C14.1507 82.4648 18.0314 85.0742 22.2696 86.8008C26.5078 88.5273 31.0203 89.3371 35.5492 89.1839ZM35.5492 41.3144C38.7665 41.0445 41.9554 42.1318 44.4427 44.3468C46.93 46.5618 48.521 49.7312 48.8801 53.1861C48.5641 56.6755 46.9915 59.8927 44.4994 62.1477C42.0074 64.4028 38.7943 65.5162 35.5492 65.2492C32.304 65.5162 29.091 64.4028 26.5989 62.1477C24.1069 59.8927 22.5342 56.6755 22.2182 53.1861C22.5773 49.7312 24.1684 46.5618 26.6557 44.3468C29.1429 42.1318 32.3318 41.0445 35.5492 41.3144ZM231.07 228.005C226.052 227.97 221.085 229.079 216.494 231.26L185.211 196.794C180.59 203.129 175 208.569 168.681 212.878L199.609 246.196C196.891 251.326 195.481 257.139 195.52 263.046C195.52 273.202 199.266 282.943 205.933 290.125C212.599 297.307 221.641 301.341 231.07 301.341C240.498 301.341 249.54 297.307 256.207 290.125C262.873 282.943 266.619 273.202 266.619 263.046C266.113 253.361 262.111 244.274 255.468 237.727C248.826 231.179 240.069 227.69 231.07 228.005ZM231.07 275.875C227.824 276.142 224.611 275.028 222.119 272.773C219.627 270.518 218.055 267.301 217.739 263.812C218.257 260.405 219.882 257.308 222.324 255.074C224.766 252.839 227.866 251.612 231.07 251.612C234.274 251.612 237.374 252.839 239.815 255.074C242.257 257.308 243.883 260.405 244.401 263.812C244.085 267.301 242.512 270.518 240.02 272.773C237.528 275.028 234.315 276.142 231.07 275.875Z" fill="#016F2F"/>
<circle cx="133.908" cy="159.946" r="9.37953" fill="#FFE200"/>
<path d="M147.27 169.167C149.426 166.046 150.419 162.267 150.075 158.489C149.731 154.711 148.073 151.174 145.389 148.493C142.705 145.812 139.165 144.158 135.387 143.819C131.608 143.48 127.831 144.478 124.712 146.638M147.27 169.167L145.421 164.548M147.27 169.167L152.411 167.107M120.562 150.807C118.417 153.932 117.435 157.709 117.787 161.483C118.139 165.256 119.803 168.787 122.489 171.461C125.175 174.135 128.713 175.783 132.488 176.118C136.263 176.453 140.036 175.454 143.151 173.295M120.562 150.807L122.402 155.399M120.562 150.807L115.461 152.852" stroke="#016F2F" stroke-width="4" stroke-linecap="round" stroke-linejoin="round"/>
<path d="M275.046 47.8305C276.649 47.8339 277.907 46.4122 277.57 44.8388C275.55 35.427 270.841 26.7934 264.016 19.9883C256.935 12.9073 248.265 8.38243 239.166 6.43451C238.796 6.36205 238.415 6.37322 238.052 6.46723C237.688 6.56124 237.35 6.73568 237.063 6.97773C236.776 7.21979 236.547 7.52331 236.393 7.86598C236.239 8.20865 236.164 8.58177 236.174 8.9579C236.183 9.58241 236.404 10.1862 236.8 10.6703C237.197 11.1544 237.746 11.49 238.357 11.622C246.673 13.461 254.295 17.65 260.315 23.6897C266.354 29.7095 270.543 37.3315 272.382 45.6476C272.656 46.8982 273.767 47.8315 275.046 47.8305ZM258.852 47.7965C260.529 47.8 261.779 46.2448 261.256 44.6487C259.578 39.5404 256.719 34.8956 252.912 31.0925C248.972 27.1525 244.307 24.3682 239.356 22.748C237.76 22.2254 236.204 23.4758 236.208 25.1524L236.208 25.2636C236.211 26.4506 237.021 27.4835 238.146 27.8679C242.311 29.3049 246.095 31.674 249.21 34.794C252.437 38.0203 254.748 41.8197 256.133 45.862C256.517 46.9867 257.546 47.7937 258.741 47.7962L258.852 47.7965Z" fill="#016F2F"/>
<path d="M54.4054 207.854C51.9858 208.497 50.6621 211.151 51.8071 213.389C58.6609 226.776 69.2581 237.901 82.3097 245.41C95.8589 253.233 110.773 256.555 125.292 255.816C125.879 255.776 126.449 255.605 126.96 255.316C127.471 255.027 127.911 254.627 128.246 254.146C128.581 253.664 128.804 253.114 128.897 252.534C128.991 251.955 128.953 251.362 128.787 250.798C128.521 249.859 127.943 249.037 127.149 248.467C126.355 247.897 125.391 247.612 124.415 247.66C111.122 248.248 97.9256 245.008 86.3988 238.328C74.8501 231.686 65.4464 221.877 59.3085 210.071C58.3902 208.294 56.3361 207.335 54.4054 207.854ZM78.8583 201.357C76.3267 202.029 75.0686 204.882 76.5027 207.079C81.1005 214.11 87.2934 219.963 94.5771 224.163C102.116 228.515 110.281 230.831 118.409 231.274C121.029 231.417 122.87 228.901 122.187 226.373L122.142 226.205C121.658 224.414 120.017 223.184 118.164 223.058C111.298 222.574 104.629 220.529 98.6662 217.08C92.4926 213.516 87.4682 208.717 83.7441 203.176C82.7092 201.635 80.8297 200.833 79.0263 201.312L78.8583 201.357Z" fill="#016F2F"/>
<path d="M30.4415 227.98C28.8931 225.209 30.453 222.04 33.489 221.365C35.9113 220.819 38.5548 222.075 39.7958 224.276C48.0877 238.898 60.4276 251.236 75.3451 259.818C90.2364 268.446 107.091 272.964 123.9 272.833C125.134 272.818 126.367 273.206 127.398 273.934C128.429 274.662 129.196 275.687 129.574 276.84C129.81 277.533 129.884 278.256 129.791 278.956C129.698 279.656 129.44 280.316 129.036 280.886C128.633 281.457 128.094 281.923 127.46 282.252C126.825 282.581 126.111 282.764 125.369 282.787C107.014 283.048 87.9803 278.354 70.4777 268.249C53.6188 258.546 39.7094 244.556 30.4415 227.98Z" fill="#016F2F"/>
<circle cx="214.535" cy="70.685" r="17.3612" fill="white"/>
<path d="M214.261 81.3247C211.747 81.3184 209.314 80.4301 207.388 78.8145C205.461 77.1988 204.162 74.9584 203.717 72.4835C203.582 70.5357 203.792 66.64 205.711 66.64" stroke="#016F2F" stroke-width="3" stroke-linecap="round" stroke-linejoin="round"/>
<path d="M214.809 81.3247C217.323 81.3184 219.756 80.4301 221.683 78.8145C223.61 77.1988 224.908 74.9584 225.353 72.4835C225.488 70.5357 225.279 66.64 223.359 66.64" stroke="#016F2F" stroke-width="3" stroke-linecap="round" stroke-linejoin="round"/>
<path d="M214.535 65.8891C213.991 65.8891 213.469 65.6729 213.084 65.288C212.699 64.903 212.483 64.381 212.483 63.8366C212.483 63.2923 212.699 62.7702 213.084 62.3853C213.469 62.0004 213.991 61.7841 214.535 61.7841C215.08 61.7841 215.602 62.0004 215.987 62.3853C216.371 62.7702 216.588 63.2923 216.588 63.8366C216.588 64.1062 216.535 64.3731 216.431 64.6221C216.328 64.8711 216.177 65.0974 215.987 65.288C215.796 65.4786 215.57 65.6297 215.321 65.7329C215.072 65.836 214.805 65.8891 214.535 65.8891ZM214.535 58.0896C213.011 58.0896 211.549 58.6951 210.471 59.7729C209.394 60.8506 208.788 62.3124 208.788 63.8366C208.788 68.1469 214.535 74.5097 214.535 74.5097C214.535 74.5097 220.282 68.1469 220.282 63.8366C220.282 62.3124 219.677 60.8506 218.599 59.7729C217.521 58.6951 216.059 58.0896 214.535 58.0896Z" fill="#FFE200"/>
</svg>
