<svg width="115" height="60" viewBox="0 0 115 60" fill="none" xmlns="http://www.w3.org/2000/svg">
<path d="M16.4545 29.5227L12.0227 29.7955C11.947 29.4167 11.7841 29.0758 11.5341 28.7727C11.2841 28.4621 10.9545 28.2159 10.5455 28.0341C10.1439 27.8447 9.66288 27.75 9.10227 27.75C8.35227 27.75 7.7197 27.9091 7.20455 28.2273C6.68939 28.5379 6.43182 28.9545 6.43182 29.4773C6.43182 29.8939 6.59849 30.2462 6.93182 30.5341C7.26515 30.822 7.83712 31.053 8.64773 31.2273L11.8068 31.8636C13.5038 32.2121 14.7689 32.7727 15.6023 33.5455C16.4356 34.3182 16.8523 35.3333 16.8523 36.5909C16.8523 37.7348 16.5152 38.7386 15.8409 39.6023C15.1742 40.4659 14.2576 41.1402 13.0909 41.625C11.9318 42.1023 10.5947 42.3409 9.07955 42.3409C6.76894 42.3409 4.92803 41.8598 3.55682 40.8977C2.19318 39.928 1.39394 38.6098 1.15909 36.9432L5.92045 36.6932C6.06439 37.3977 6.41288 37.9356 6.96591 38.3068C7.51894 38.6705 8.22727 38.8523 9.09091 38.8523C9.93939 38.8523 10.6212 38.6894 11.1364 38.3636C11.6591 38.0303 11.9242 37.6023 11.9318 37.0795C11.9242 36.6402 11.7386 36.2803 11.375 36C11.0114 35.7121 10.4508 35.4924 9.69318 35.3409L6.67045 34.7386C4.96591 34.3977 3.69697 33.8068 2.86364 32.9659C2.03788 32.125 1.625 31.053 1.625 29.75C1.625 28.6288 1.92803 27.6629 2.53409 26.8523C3.14773 26.0417 4.00758 25.4167 5.11364 24.9773C6.22727 24.5379 7.5303 24.3182 9.02273 24.3182C11.2273 24.3182 12.9621 24.7841 14.2273 25.7159C15.5 26.6477 16.2424 27.9167 16.4545 29.5227ZM27.8551 42.3409C26.0597 42.3409 24.5142 41.9773 23.2188 41.25C21.9309 40.5152 20.9384 39.4773 20.2415 38.1364C19.5445 36.7879 19.196 35.1932 19.196 33.3523C19.196 31.5568 19.5445 29.9811 20.2415 28.625C20.9384 27.2689 21.9195 26.2121 23.1847 25.4545C24.4574 24.697 25.9498 24.3182 27.6619 24.3182C28.8134 24.3182 29.8854 24.5038 30.8778 24.875C31.8778 25.2386 32.7491 25.7879 33.4915 26.5227C34.2415 27.2576 34.8248 28.1818 35.2415 29.2955C35.6581 30.4015 35.8665 31.697 35.8665 33.1818V34.5114H21.1278V31.5114H31.3097C31.3097 30.8144 31.1581 30.197 30.8551 29.6591C30.5521 29.1212 30.1316 28.7008 29.5938 28.3977C29.0634 28.0871 28.446 27.9318 27.7415 27.9318C27.0066 27.9318 26.3551 28.1023 25.7869 28.4432C25.2263 28.7765 24.7869 29.2273 24.4688 29.7955C24.1506 30.3561 23.9877 30.9811 23.9801 31.6705V34.5227C23.9801 35.3864 24.1392 36.1326 24.4574 36.7614C24.7831 37.3902 25.2415 37.875 25.8324 38.2159C26.4233 38.5568 27.1241 38.7273 27.9347 38.7273C28.4725 38.7273 28.965 38.6515 29.4119 38.5C29.8589 38.3485 30.2415 38.1212 30.5597 37.8182C30.8778 37.5152 31.1203 37.1439 31.2869 36.7045L35.7642 37C35.5369 38.0758 35.071 39.0152 34.3665 39.8182C33.6695 40.6136 32.768 41.2348 31.6619 41.6818C30.5634 42.1212 29.2945 42.3409 27.8551 42.3409ZM48.3097 24.5455V28.1818H37.7983V24.5455H48.3097ZM40.1847 20.3636H45.0256V36.6364C45.0256 37.0833 45.0938 37.4318 45.2301 37.6818C45.3665 37.9242 45.5559 38.0947 45.7983 38.1932C46.0483 38.2917 46.3362 38.3409 46.6619 38.3409C46.8892 38.3409 47.1165 38.322 47.3438 38.2841C47.571 38.2386 47.7453 38.2045 47.8665 38.1818L48.6278 41.7841C48.3854 41.8598 48.0445 41.947 47.6051 42.0455C47.1657 42.1515 46.6316 42.2159 46.0028 42.2386C44.8362 42.2841 43.8134 42.1288 42.9347 41.7727C42.0634 41.4167 41.3854 40.8636 40.9006 40.1136C40.4157 39.3636 40.1771 38.4167 40.1847 37.2727V20.3636Z" fill="black"/>
<path d="M75.2131 42V24.5455H79.9062V27.5909H80.0881C80.4063 26.5076 80.9403 25.6894 81.6903 25.1364C82.4403 24.5758 83.304 24.2955 84.2812 24.2955C84.5237 24.2955 84.785 24.3106 85.0653 24.3409C85.3456 24.3712 85.5919 24.4129 85.804 24.4659V28.7614C85.5767 28.6932 85.2623 28.6326 84.8608 28.5795C84.4593 28.5265 84.0919 28.5 83.7585 28.5C83.0464 28.5 82.41 28.6553 81.8494 28.9659C81.2964 29.2689 80.857 29.6932 80.5312 30.2386C80.2131 30.7841 80.054 31.4129 80.054 32.125V42H75.2131ZM88.3068 42V24.5455H93.1477V42H88.3068ZM90.7386 22.2955C90.0189 22.2955 89.4015 22.0568 88.8864 21.5795C88.3788 21.0947 88.125 20.5152 88.125 19.8409C88.125 19.1742 88.3788 18.6023 88.8864 18.125C89.4015 17.6402 90.0189 17.3977 90.7386 17.3977C91.4583 17.3977 92.072 17.6402 92.5795 18.125C93.0947 18.6023 93.3523 19.1742 93.3523 19.8409C93.3523 20.5152 93.0947 21.0947 92.5795 21.5795C92.072 22.0568 91.4583 22.2955 90.7386 22.2955ZM101.866 31.9091V42H97.0256V24.5455H101.639V27.625H101.844C102.23 26.6098 102.878 25.8068 103.787 25.2159C104.696 24.6174 105.798 24.3182 107.094 24.3182C108.306 24.3182 109.363 24.5833 110.264 25.1136C111.166 25.6439 111.866 26.4015 112.366 27.3864C112.866 28.3636 113.116 29.5303 113.116 30.8864V42H108.276V31.75C108.283 30.6818 108.01 29.8485 107.457 29.25C106.904 28.6439 106.143 28.3409 105.173 28.3409C104.522 28.3409 103.946 28.4811 103.446 28.7614C102.954 29.0417 102.567 29.4508 102.287 29.9886C102.014 30.5189 101.874 31.1591 101.866 31.9091Z" fill="black"/>
<ellipse cx="61.9909" cy="32.9888" rx="4.89491" ry="4.89491" fill="#FFE200"/>
<path d="M68.9639 37.8008C70.0891 36.172 70.6072 34.1999 70.4278 32.2283C70.2484 30.2567 69.3829 28.4106 67.9821 27.0116C66.5813 25.6126 64.7341 24.7494 62.7622 24.5725C60.7904 24.3956 58.819 24.9162 57.1916 26.0435M68.9639 37.8008L67.9989 35.3904M68.9639 37.8008L71.6466 36.7257M55.0258 28.2194C53.9064 29.85 53.3939 31.8214 53.5776 33.7907C53.7613 35.76 54.6295 37.6026 56.0312 38.998C57.4329 40.3934 59.2794 41.2533 61.2496 41.4281C63.2197 41.603 65.1887 41.0817 66.8142 39.9549M55.0258 28.2194L55.986 30.6155M55.0258 28.2194L52.3637 29.2863" stroke="#016F2F" stroke-width="2.5" stroke-linecap="round" stroke-linejoin="round"/>
</svg>
