<svg width="86" height="29" viewBox="0 0 86 29" fill="none" xmlns="http://www.w3.org/2000/svg">
<path d="M12.7667 13.642L9.44283 13.8466C9.38601 13.5625 9.26385 13.3068 9.07635 13.0795C8.88885 12.8466 8.64169 12.6619 8.33487 12.5256C8.03374 12.3835 7.67294 12.3125 7.25249 12.3125C6.68999 12.3125 6.21555 12.4318 5.82919 12.6705C5.44283 12.9034 5.24965 13.2159 5.24965 13.608C5.24965 13.9205 5.37465 14.1847 5.62465 14.4006C5.87465 14.6165 6.30362 14.7898 6.91158 14.9205L9.2809 15.3977C10.5536 15.6591 11.5025 16.0795 12.1275 16.6591C12.7525 17.2386 13.065 18 13.065 18.9432C13.065 19.8011 12.8121 20.554 12.3065 21.2017C11.8065 21.8494 11.119 22.3551 10.244 22.7188C9.37465 23.0767 8.3718 23.2557 7.23544 23.2557C5.50249 23.2557 4.1218 22.8949 3.09339 22.1733C2.07067 21.446 1.47124 20.4574 1.2951 19.2074L4.86612 19.0199C4.97408 19.5483 5.23544 19.9517 5.65021 20.2301C6.06499 20.5028 6.59624 20.6392 7.24396 20.6392C7.88033 20.6392 8.39169 20.517 8.77805 20.2727C9.1701 20.0227 9.36896 19.7017 9.37465 19.3097C9.36896 18.9801 9.22976 18.7102 8.95703 18.5C8.6843 18.2841 8.26385 18.1193 7.69567 18.0057L5.42862 17.554C4.15021 17.2983 3.19851 16.8551 2.57351 16.2244C1.95419 15.5937 1.64453 14.7898 1.64453 13.8125C1.64453 12.9716 1.8718 12.2472 2.32635 11.6392C2.78658 11.0312 3.43146 10.5625 4.26101 10.233C5.09624 9.90341 6.07351 9.73864 7.19283 9.73864C8.84624 9.73864 10.1474 10.0881 11.0962 10.7869C12.0508 11.4858 12.6076 12.4375 12.7667 13.642ZM21.3171 23.2557C19.9705 23.2557 18.8114 22.983 17.8398 22.4375C16.8739 21.8864 16.1296 21.108 15.6069 20.1023C15.0842 19.0909 14.8228 17.8949 14.8228 16.5142C14.8228 15.1676 15.0842 13.9858 15.6069 12.9688C16.1296 11.9517 16.8654 11.1591 17.8143 10.5909C18.7688 10.0227 19.8881 9.73864 21.1722 9.73864C22.0359 9.73864 22.8398 9.87784 23.5842 10.1562C24.3342 10.429 24.9876 10.8409 25.5444 11.392C26.1069 11.9432 26.5444 12.6364 26.8569 13.4716C27.1694 14.3011 27.3256 15.2727 27.3256 16.3864V17.3835H16.2717V15.1335H23.908C23.908 14.6108 23.7944 14.1477 23.5671 13.7443C23.3398 13.3409 23.0245 13.0256 22.6211 12.7983C22.2234 12.5653 21.7603 12.4489 21.2319 12.4489C20.6808 12.4489 20.1921 12.5767 19.766 12.8324C19.3455 13.0824 19.016 13.4205 18.7773 13.8466C18.5387 14.267 18.4165 14.7358 18.4109 15.2528V17.392C18.4109 18.0398 18.5302 18.5994 18.7688 19.071C19.0131 19.5426 19.3569 19.9062 19.8001 20.1619C20.2433 20.4176 20.7688 20.5455 21.3768 20.5455C21.7802 20.5455 22.1495 20.4886 22.4847 20.375C22.82 20.2614 23.1069 20.0909 23.3455 19.8636C23.5842 19.6364 23.766 19.358 23.891 19.0284L27.2489 19.25C27.0785 20.0568 26.729 20.7614 26.2006 21.3636C25.6779 21.9602 25.0018 22.4261 24.1722 22.7614C23.3484 23.0909 22.3967 23.2557 21.3171 23.2557ZM36.658 9.90909V12.6364H28.7745V9.90909H36.658ZM30.5643 6.77273H34.195V18.9773C34.195 19.3125 34.2461 19.5739 34.3484 19.7614C34.4506 19.9432 34.5927 20.071 34.7745 20.1449C34.962 20.2187 35.1779 20.2557 35.4222 20.2557C35.5927 20.2557 35.7631 20.2415 35.9336 20.2131C36.104 20.179 36.2347 20.1534 36.3256 20.1364L36.8967 22.8381C36.7148 22.8949 36.4592 22.9602 36.1296 23.0341C35.8001 23.1136 35.3995 23.1619 34.9279 23.179C34.0529 23.2131 33.2859 23.0966 32.6268 22.8295C31.9734 22.5625 31.4648 22.1477 31.1012 21.5852C30.7376 21.0227 30.5586 20.3125 30.5643 19.4545V6.77273Z" fill="white"/>
<path d="M55.8043 23V9.90909H59.3242V12.1932H59.4606C59.6992 11.3807 60.0998 10.767 60.6623 10.3523C61.2248 9.93182 61.8725 9.72159 62.6055 9.72159C62.7873 9.72159 62.9833 9.73295 63.1935 9.75568C63.4038 9.77841 63.5884 9.80966 63.7475 9.84943V13.071C63.5771 13.0199 63.3413 12.9744 63.0401 12.9347C62.739 12.8949 62.4634 12.875 62.2134 12.875C61.6793 12.875 61.2021 12.9915 60.7816 13.2244C60.3668 13.4517 60.0373 13.7699 59.793 14.179C59.5543 14.5881 59.435 15.0597 59.435 15.5938V23H55.8043ZM65.6246 23V9.90909H69.2553V23H65.6246ZM67.4485 8.22159C66.9087 8.22159 66.4457 8.04261 66.0593 7.68466C65.6786 7.32102 65.4883 6.88636 65.4883 6.38068C65.4883 5.88068 65.6786 5.4517 66.0593 5.09375C66.4457 4.73011 66.9087 4.54829 67.4485 4.54829C67.9883 4.54829 68.4485 4.73011 68.8292 5.09375C69.2156 5.4517 69.4087 5.88068 69.4087 6.38068C69.4087 6.88636 69.2156 7.32102 68.8292 7.68466C68.4485 8.04261 67.9883 8.22159 67.4485 8.22159ZM75.7944 15.4318V23H72.1637V9.90909H75.6239V12.2188H75.7773C76.0671 11.4574 76.5529 10.8551 77.2347 10.4119C77.9165 9.96307 78.7433 9.73864 79.7148 9.73864C80.6239 9.73864 81.4165 9.9375 82.0927 10.3352C82.7688 10.733 83.2944 11.3011 83.6694 12.0398C84.0444 12.7727 84.2319 13.6477 84.2319 14.6648V23H80.6012V15.3125C80.6069 14.5114 80.4023 13.8864 79.9876 13.4375C79.5728 12.983 79.0018 12.7557 78.2745 12.7557C77.7859 12.7557 77.354 12.8608 76.979 13.071C76.6097 13.2812 76.32 13.5881 76.1097 13.9915C75.9052 14.3892 75.8001 14.8693 75.7944 15.4318Z" fill="white"/>
<circle cx="46.309" cy="16.3072" r="3.70044" fill="white"/>
<path d="M51.5803 19.9451C52.431 18.7137 52.8226 17.2229 52.687 15.7324C52.5513 14.2419 51.897 12.8463 50.8381 11.7887C49.7791 10.7311 48.3826 10.0785 46.892 9.9448C45.4013 9.81107 43.911 10.2046 42.6807 11.0568M51.5803 19.9451L50.8508 18.1229M51.5803 19.9451L53.6084 19.1323M41.0434 12.7018C40.1971 13.9345 39.8098 15.4248 39.9486 16.9135C40.0875 18.4023 40.7439 19.7952 41.8035 20.8501C42.8632 21.905 44.2591 22.5551 45.7484 22.6873C47.2378 22.8194 48.7264 22.4253 49.9552 21.5735M41.0434 12.7018L41.7693 14.5131M41.0434 12.7018L39.0309 13.5083" stroke="white" stroke-width="2" stroke-linecap="round" stroke-linejoin="round"/>
</svg>
