<svg width="75" height="75" viewBox="0 0 75 75" fill="none" xmlns="http://www.w3.org/2000/svg">
<path d="M42.75 1.18923C41.1105 0.406328 39.3168 0 37.5 0C35.6832 0 33.8895 0.406328 32.25 1.18923C30.8086 1.88069 29.4878 3.00751 27.6403 4.58433L27.3513 4.8258C25.7562 6.26366 23.7154 7.10968 21.5708 7.22212L21.1977 7.25139C18.7757 7.44529 17.0452 7.58066 15.5379 8.1148C13.8248 8.72002 12.2688 9.70075 10.9837 10.9852C9.6987 12.2696 8.71721 13.8251 8.11114 15.5379C7.58066 17.0452 7.44529 18.7757 7.25139 21.1977L7.22212 21.5708C7.10968 23.7154 6.26366 25.7562 4.8258 27.3513L4.58433 27.6366C3.00751 29.4878 1.87703 30.8086 1.18923 32.25C0.406328 33.8895 0 35.6832 0 37.5C0 39.3168 0.406328 41.1105 1.18923 42.75C1.88069 44.1914 3.00751 45.5121 4.58433 47.3597L4.8258 47.6487C6.32579 49.4048 7.03554 51.0841 7.22212 53.4292L7.25139 53.8023C7.44529 56.2243 7.58066 57.9548 8.1148 59.4621C8.72002 61.1752 9.70075 62.7312 10.9852 64.0163C12.2696 65.3013 13.8251 66.2828 15.5379 66.8889C17.0452 67.4193 18.7757 67.5547 21.1977 67.7486L21.5708 67.7779C23.872 67.9608 25.5586 68.6486 27.3513 70.1742L27.6366 70.4157C29.4878 71.9925 30.8086 73.123 32.25 73.8108C33.8895 74.5937 35.6832 75 37.5 75C39.3168 75 41.1105 74.5937 42.75 73.8108C44.1914 73.1193 45.5121 71.9925 47.3597 70.4157L47.6487 70.1742C49.4048 68.6742 51.0841 67.9645 53.4292 67.7779L53.8023 67.7486C56.2243 67.5547 57.9548 67.4193 59.4621 66.8852C61.1752 66.28 62.7312 65.2992 64.0163 64.0148C65.3013 62.7304 66.2828 61.1749 66.8889 59.4621C67.4193 57.9548 67.5547 56.2243 67.7486 53.8023L67.7779 53.4292C67.9608 51.128 68.6486 49.4414 70.1742 47.6487L70.4157 47.3597C71.9925 45.5121 73.123 44.1914 73.8108 42.75C74.5937 41.1105 75 39.3168 75 37.5C75 35.6832 74.5937 33.8895 73.8108 32.25C73.1193 30.8086 71.9925 29.4878 70.4157 27.6403L70.1742 27.3513C68.7363 25.7562 67.8903 23.7154 67.7779 21.5708L67.7486 21.1977C67.5547 18.7757 67.4193 17.0452 66.8852 15.5379C66.28 13.8248 65.2992 12.2688 64.0148 10.9837C62.7304 9.6987 61.1749 8.71721 59.4621 8.11114C57.9548 7.58066 56.2243 7.44529 53.8023 7.25139L53.4292 7.22212C51.2846 7.10968 49.2438 6.26366 47.6487 4.8258L47.3597 4.58433C45.5121 3.00751 44.1914 1.87703 42.75 1.18923Z" fill="#016F2F"/>
<path d="M18.75 37.358C28.1642 37.358 35.7955 29.7267 35.7955 20.3125H39.2045C39.2045 29.7267 46.8358 37.358 56.25 37.358V40.767C46.8358 40.767 39.2045 48.3983 39.2045 57.8125H35.7955C35.7955 48.3983 28.1642 40.767 18.75 40.767V37.358Z" fill="#FFE200"/>
</svg>
