<svg width="75" height="75" viewBox="0 0 75 75" fill="none" xmlns="http://www.w3.org/2000/svg">
<path d="M42.75 1.18923C41.1105 0.406328 39.3168 0 37.5 0C35.6832 0 33.8895 0.406328 32.25 1.18923C30.8086 1.88069 29.4878 3.00751 27.6403 4.58433L27.3513 4.8258C25.7562 6.26366 23.7154 7.10968 21.5708 7.22212L21.1977 7.25139C18.7757 7.44529 17.0452 7.58066 15.5379 8.1148C13.8248 8.72002 12.2688 9.70075 10.9837 10.9852C9.6987 12.2696 8.71721 13.8251 8.11114 15.5379C7.58066 17.0452 7.44529 18.7757 7.25139 21.1977L7.22212 21.5708C7.10968 23.7154 6.26366 25.7562 4.8258 27.3513L4.58433 27.6366C3.00751 29.4878 1.87703 30.8086 1.18923 32.25C0.406328 33.8895 0 35.6832 0 37.5C0 39.3168 0.406328 41.1105 1.18923 42.75C1.88069 44.1914 3.00751 45.5121 4.58433 47.3597L4.8258 47.6487C6.32579 49.4048 7.03554 51.0841 7.22212 53.4292L7.25139 53.8023C7.44529 56.2243 7.58066 57.9548 8.1148 59.4621C8.72002 61.1752 9.70075 62.7312 10.9852 64.0163C12.2696 65.3013 13.8251 66.2828 15.5379 66.8889C17.0452 67.4193 18.7757 67.5547 21.1977 67.7486L21.5708 67.7779C23.872 67.9608 25.5586 68.6486 27.3513 70.1742L27.6366 70.4157C29.4878 71.9925 30.8086 73.123 32.25 73.8108C33.8895 74.5937 35.6832 75 37.5 75C39.3168 75 41.1105 74.5937 42.75 73.8108C44.1914 73.1193 45.5121 71.9925 47.3597 70.4157L47.6487 70.1742C49.4048 68.6742 51.0841 67.9645 53.4292 67.7779L53.8023 67.7486C56.2243 67.5547 57.9548 67.4193 59.4621 66.8852C61.1752 66.28 62.7312 65.2992 64.0163 64.0148C65.3013 62.7304 66.2828 61.1749 66.8889 59.4621C67.4193 57.9548 67.5547 56.2243 67.7486 53.8023L67.7779 53.4292C67.9608 51.128 68.6486 49.4414 70.1742 47.6487L70.4157 47.3597C71.9925 45.5121 73.123 44.1914 73.8108 42.75C74.5937 41.1105 75 39.3168 75 37.5C75 35.6832 74.5937 33.8895 73.8108 32.25C73.1193 30.8086 71.9925 29.4878 70.4157 27.6403L70.1742 27.3513C68.7363 25.7562 67.8903 23.7154 67.7779 21.5708L67.7486 21.1977C67.5547 18.7757 67.4193 17.0452 66.8852 15.5379C66.28 13.8248 65.2992 12.2688 64.0148 10.9837C62.7304 9.6987 61.1749 8.71721 59.4621 8.11114C57.9548 7.58066 56.2243 7.44529 53.8023 7.25139L53.4292 7.22212C51.2846 7.10968 49.2438 6.26366 47.6487 4.8258L47.3597 4.58433C45.5121 3.00751 44.1914 1.87703 42.75 1.18923Z" fill="#016F2F"/>
<path d="M28.6449 48.85C26.8618 48.85 25.4115 48.2117 24.324 46.9446C23.2365 45.6775 22.5228 43.7972 22.1072 41.0615C21.4952 37.0297 22.1024 33.6315 23.8169 31.4934C24.8264 30.2341 26.1512 29.506 27.648 29.3888C28.9296 29.2873 30.8451 29.8021 32.6952 32.8261C33.8537 34.7197 34.7346 37.2352 35.1124 39.7272C35.569 42.7356 35.2291 44.9502 34.0729 46.4962C33.155 47.7243 31.7434 48.4851 29.8767 48.7617C29.4688 48.821 29.0571 48.8505 28.6449 48.85ZM31.7339 59.375C30.6921 59.375 29.6362 59.0446 28.6851 58.4094C27.3127 57.4882 26.3628 56.0677 26.0416 54.4566C25.8169 53.3114 25.9517 52.4013 26.4533 51.6724C27.2679 50.4889 28.73 50.2225 30.2773 49.9397C30.4406 49.91 30.6062 49.8804 30.7741 49.8483C31.1306 49.7811 31.4949 49.6921 31.8482 49.6054C33.1716 49.282 34.5406 48.9468 35.6707 49.7421C36.427 50.2733 36.8536 51.1764 36.9814 52.5013C37.1265 54.0301 36.7953 55.5557 36.0484 56.7978C35.2448 58.1345 34.0398 59.018 32.6574 59.2867C32.3531 59.3456 32.0439 59.3751 31.7339 59.375ZM47.9141 41.3505C47.5022 41.349 47.091 41.3177 46.6838 41.2568C44.8179 40.9833 43.4063 40.2217 42.4883 38.9913C41.3322 37.4453 40.99 35.2314 41.4489 32.2222C41.8267 29.7279 42.7052 27.2148 43.8582 25.3282C45.6988 22.3151 47.6167 21.7925 48.9054 21.8847C50.3974 21.9925 51.7199 22.7104 52.731 23.9627C54.4573 26.1008 55.0692 29.5091 54.4549 33.5589C54.0393 36.293 53.335 38.164 52.2381 39.442C51.1411 40.7201 49.6971 41.3505 47.9141 41.3505ZM44.825 51.8755C44.5158 51.8755 44.2074 51.8459 43.9039 51.7873C42.5191 51.5185 41.3141 50.635 40.5128 49.2984C39.766 48.0563 39.4348 46.5306 39.5799 45.0018C39.7061 43.6738 40.1319 42.7738 40.8906 42.2418C42.0207 41.4474 43.3897 41.7817 44.713 42.1059C45.0663 42.1918 45.4307 42.2809 45.7871 42.3489L46.2832 42.4403C47.8312 42.7223 49.2934 42.9871 50.108 44.1722C50.6096 44.901 50.7444 45.8127 50.5197 46.9563C50.1989 48.5678 49.2489 49.9886 47.8762 50.91C46.9196 51.5459 45.8636 51.8755 44.825 51.8755Z" fill="#FFE200"/>
</svg>
