<svg width="75" height="75" viewBox="0 0 75 75" fill="none" xmlns="http://www.w3.org/2000/svg">
<path d="M42.75 1.18923C41.1105 0.406328 39.3168 0 37.5 0C35.6832 0 33.8895 0.406328 32.25 1.18923C30.8086 1.88069 29.4878 3.00751 27.6403 4.58433L27.3513 4.8258C25.7562 6.26366 23.7154 7.10968 21.5708 7.22212L21.1977 7.25139C18.7757 7.44529 17.0452 7.58066 15.5379 8.1148C13.8248 8.72002 12.2688 9.70075 10.9837 10.9852C9.6987 12.2696 8.71721 13.8251 8.11114 15.5379C7.58066 17.0452 7.44529 18.7757 7.25139 21.1977L7.22212 21.5708C7.10968 23.7154 6.26366 25.7562 4.8258 27.3513L4.58433 27.6366C3.00751 29.4878 1.87703 30.8086 1.18923 32.25C0.406328 33.8895 0 35.6832 0 37.5C0 39.3168 0.406328 41.1105 1.18923 42.75C1.88069 44.1914 3.00751 45.5121 4.58433 47.3597L4.8258 47.6487C6.32579 49.4048 7.03554 51.0841 7.22212 53.4292L7.25139 53.8023C7.44529 56.2243 7.58066 57.9548 8.1148 59.4621C8.72002 61.1752 9.70075 62.7312 10.9852 64.0163C12.2696 65.3013 13.8251 66.2828 15.5379 66.8889C17.0452 67.4193 18.7757 67.5547 21.1977 67.7486L21.5708 67.7779C23.872 67.9608 25.5586 68.6486 27.3513 70.1742L27.6366 70.4157C29.4878 71.9925 30.8086 73.123 32.25 73.8108C33.8895 74.5937 35.6832 75 37.5 75C39.3168 75 41.1105 74.5937 42.75 73.8108C44.1914 73.1193 45.5121 71.9925 47.3597 70.4157L47.6487 70.1742C49.4048 68.6742 51.0841 67.9645 53.4292 67.7779L53.8023 67.7486C56.2243 67.5547 57.9548 67.4193 59.4621 66.8852C61.1752 66.28 62.7312 65.2992 64.0163 64.0148C65.3013 62.7304 66.2828 61.1749 66.8889 59.4621C67.4193 57.9548 67.5547 56.2243 67.7486 53.8023L67.7779 53.4292C67.9608 51.128 68.6486 49.4414 70.1742 47.6487L70.4157 47.3597C71.9925 45.5121 73.123 44.1914 73.8108 42.75C74.5937 41.1105 75 39.3168 75 37.5C75 35.6832 74.5937 33.8895 73.8108 32.25C73.1193 30.8086 71.9925 29.4878 70.4157 27.6403L70.1742 27.3513C68.7363 25.7562 67.8903 23.7154 67.7779 21.5708L67.7486 21.1977C67.5547 18.7757 67.4193 17.0452 66.8852 15.5379C66.28 13.8248 65.2992 12.2688 64.0148 10.9837C62.7304 9.6987 61.1749 8.71721 59.4621 8.11114C57.9548 7.58066 56.2243 7.44529 53.8023 7.25139L53.4292 7.22212C51.2846 7.10968 49.2438 6.26366 47.6487 4.8258L47.3597 4.58433C45.5121 3.00751 44.1914 1.87703 42.75 1.18923Z" fill="#016F2F"/>
<path d="M24.998 35.9374C25.3963 35.9379 25.7793 36.0904 26.0689 36.3638C26.3585 36.6372 26.5328 37.0108 26.5561 37.4084C26.5794 37.8059 26.4501 38.1974 26.1945 38.5028C25.9389 38.8082 25.5763 39.0045 25.1808 39.0515L24.998 39.0624H23.4355C23.0373 39.062 22.6542 38.9095 22.3646 38.6361C22.075 38.3627 21.9008 37.9891 21.8774 37.5915C21.8541 37.1939 21.9835 36.8025 22.2391 36.4971C22.4947 36.1917 22.8572 35.9954 23.2527 35.9484L23.4355 35.9374H24.998ZM37.498 21.8749C37.8807 21.875 38.2501 22.0155 38.5361 22.2698C38.8221 22.5241 39.0048 22.8745 39.0496 23.2546L39.0605 23.4374V24.9999C39.0601 25.3982 38.9076 25.7812 38.6342 26.0708C38.3608 26.3604 37.9872 26.5347 37.5896 26.558C37.192 26.5814 36.8006 26.452 36.4952 26.1964C36.1898 25.9408 35.9935 25.5782 35.9465 25.1828L35.9355 24.9999V23.4374C35.9355 23.023 36.1001 22.6256 36.3932 22.3326C36.6862 22.0396 37.0836 21.8749 37.498 21.8749ZM51.5605 35.9374C51.9588 35.9379 52.3418 36.0904 52.6314 36.3638C52.921 36.6372 53.0953 37.0108 53.1186 37.4084C53.1419 37.8059 53.0126 38.1974 52.757 38.5028C52.5014 38.8082 52.1388 39.0045 51.7433 39.0515L51.5605 39.0624H49.998C49.5998 39.062 49.2167 38.9095 48.9271 38.6361C48.6376 38.3627 48.4633 37.9891 48.4399 37.5915C48.4166 37.1939 48.546 36.8025 48.8016 36.4971C49.0572 36.1917 49.4197 35.9954 49.8152 35.9484L49.998 35.9374H51.5605ZM26.3933 26.3953C26.6624 26.1262 27.0204 25.9646 27.4001 25.9407C27.7798 25.9169 28.1552 26.0324 28.4558 26.2656L28.6027 26.3953L29.6965 27.489C29.9767 27.7702 30.1394 28.1475 30.1515 28.5443C30.1636 28.9411 30.0243 29.3276 29.7617 29.6254C29.4991 29.9231 29.1331 30.1098 28.7379 30.1474C28.3427 30.1851 27.948 30.0709 27.634 29.8281L27.4871 29.6984L26.3933 28.6046C26.1004 28.3116 25.9359 27.9143 25.9359 27.4999C25.9359 27.0856 26.1004 26.6883 26.3933 26.3953ZM46.3933 26.3953C46.6745 26.115 47.0518 25.9523 47.4486 25.9402C47.8454 25.9281 48.232 26.0675 48.5297 26.33C48.8275 26.5926 49.0141 26.9586 49.0518 27.3538C49.0894 27.749 48.9752 28.1437 48.7324 28.4578L48.6027 28.6046L47.509 29.6984C47.2278 29.9786 46.8505 30.1413 46.4537 30.1534C46.0569 30.1655 45.6703 30.0262 45.3726 29.7636C45.0748 29.5011 44.8882 29.135 44.8505 28.7398C44.8129 28.3446 44.9271 27.9499 45.1699 27.6359L45.2996 27.489L46.3933 26.3953ZM40.623 46.8749C41.0374 46.8749 41.4349 47.0396 41.7279 47.3326C42.0209 47.6256 42.1855 48.023 42.1855 48.4374C42.1855 49.6806 41.6917 50.8729 40.8126 51.752C39.9335 52.6311 38.7412 53.1249 37.498 53.1249C36.2548 53.1249 35.0625 52.6311 34.1835 51.752C33.3044 50.8729 32.8105 49.6806 32.8105 48.4374C32.8106 48.0547 32.9511 47.6853 33.2054 47.3994C33.4597 47.1134 33.8101 46.9307 34.1902 46.8859L34.373 46.8749H40.623ZM37.498 28.1249C39.4657 28.1249 41.3834 28.744 42.9797 29.8945C44.5759 31.045 45.7697 32.6686 46.3919 34.5353C47.0142 36.402 47.0333 38.4171 46.4466 40.2953C45.8599 42.1734 44.6971 43.8193 43.123 44.9999C42.9077 45.1617 42.6542 45.265 42.3871 45.2999L42.1855 45.3124H32.8105C32.4724 45.3124 32.1435 45.2028 31.873 44.9999C30.2989 43.8193 29.1361 42.1734 28.5495 40.2953C27.9628 38.4171 27.9819 36.402 28.6041 34.5353C29.2263 32.6686 30.4201 31.045 32.0164 29.8945C33.6126 28.744 35.5304 28.1249 37.498 28.1249Z" fill="#FFE200"/>
</svg>
