<svg width="50" height="50" viewBox="0 0 50 50" fill="none" xmlns="http://www.w3.org/2000/svg">
<path d="M24.997 0C20.3063 0 15.6157 0.125 11.2377 0.4375C8.45904 0.617903 5.83778 1.7901 3.8517 3.74042C1.86561 5.69074 0.646953 8.28932 0.417854 11.0625C-0.0824855 17.75 -0.145028 24.375 0.292769 31.0625C0.532516 34.0345 1.89315 36.8045 4.09932 38.8119C6.30549 40.8193 9.1924 41.9142 12.1758 41.875H18.7428V33.75H12.1758C10.237 33.8125 8.54836 32.4375 8.36074 30.5C7.98548 24.25 8.04802 18 8.48582 11.75C8.61091 10 9.98684 8.6875 11.738 8.5625C15.9909 8.25 20.494 8.125 24.997 8.125C29.5001 8.125 34.0031 8.3125 38.256 8.5C39.9446 8.625 41.3831 9.9375 41.5082 11.6875C42.0085 17.9375 42.0085 24.1875 41.6333 30.4375C41.3831 32.375 39.757 33.8125 37.8182 33.75H31.2512L18.7428 41.875V50L31.2512 41.875H37.8182C44.0099 41.9375 49.2009 37.1875 49.7013 31.0625C50.139 24.4375 50.0765 17.75 49.6387 11.125C49.4096 8.35182 48.191 5.75324 46.2049 3.80292C44.2188 1.8526 41.5975 0.680403 38.8189 0.5C34.3784 0.125 29.6877 0 24.997 0Z" fill="#016F2F"/>
<path d="M20.3948 27.4906C20.3948 27.2087 20.6372 26.9737 20.928 26.9737C20.9953 26.9761 21.0614 26.9921 21.1219 27.0207C22.3338 27.5376 23.6427 27.8431 24.9758 27.8666C26.3089 27.8431 27.6178 27.5611 28.8297 27.0442C28.8947 27.0162 28.9649 27.0013 29.036 27.0005C29.1072 26.9996 29.1777 27.0127 29.2435 27.0391C29.3092 27.0655 29.3687 27.1045 29.4184 27.1539C29.4681 27.2032 29.507 27.2618 29.5326 27.3261C29.5811 27.3731 29.6053 27.4201 29.6053 27.4906V29.3233C29.6053 29.5818 29.4599 29.8167 29.2175 29.9342C27.9086 30.5451 26.4543 30.8741 25 30.9211C23.5457 30.8741 22.0915 30.5451 20.7826 29.9342C20.5402 29.8167 20.3948 29.5818 20.3948 29.3233V27.4906Z" fill="#FFE200"/>
<circle cx="18.0864" cy="18.085" r="3.07396" fill="#FFE200"/>
<path d="M22.4654 21.107C23.172 20.0841 23.4973 18.8457 23.3847 17.6075C23.272 16.3694 22.7285 15.21 21.8488 14.3315C20.9691 13.4529 19.8091 12.9109 18.5708 12.7998C17.3325 12.6887 16.0945 13.0156 15.0725 13.7235M22.4654 21.107L21.8593 19.5933M22.4654 21.107L24.1501 20.4318M13.7124 15.09C13.0094 16.114 12.6876 17.352 12.8029 18.5887C12.9183 19.8254 13.4635 20.9825 14.3438 21.8588C15.224 22.7351 16.3836 23.2751 17.6208 23.3849C18.858 23.4947 20.0946 23.1673 21.1154 22.4598M13.7124 15.09L14.3154 16.5947M13.7124 15.09L12.0406 15.7599" stroke="#016F2F" stroke-width="1.5" stroke-linecap="round" stroke-linejoin="round"/>
<circle cx="33.5526" cy="18.4211" r="5.92105" fill="#FFE200"/>
<path d="M35.9768 20.078C36.3759 19.5003 36.5596 18.8009 36.496 18.1016C36.4323 17.4023 36.1254 16.7475 35.6285 16.2513C35.1317 15.7551 34.4765 15.4489 33.7771 15.3862C33.0777 15.3234 32.3785 15.5081 31.8013 15.9079M35.9768 20.078L35.6345 19.2231M35.9768 20.078L36.9283 19.6967M31.0331 16.6797C30.6361 17.258 30.4543 17.9572 30.5195 18.6557C30.5846 19.3542 30.8926 20.0077 31.3897 20.5027C31.8869 20.9976 32.5418 21.3026 33.2406 21.3646C33.9394 21.4266 34.6378 21.2417 35.2143 20.8421M31.0331 16.6797L31.3737 17.5295M31.0331 16.6797L30.0889 17.0581" stroke="#016F2F" stroke-linecap="round" stroke-linejoin="round"/>
</svg>
