<svg width="38" height="35" viewBox="0 0 38 35" fill="none" xmlns="http://www.w3.org/2000/svg">
<path fill-rule="evenodd" clip-rule="evenodd" d="M5.58333 6.97919C4.18542 6.97919 2.84476 7.53451 1.85629 8.52298C0.867818 9.51145 0.3125 10.8521 0.3125 12.25V29.5C0.3125 30.8979 0.867818 32.2386 1.85629 33.2271C2.84476 34.2155 4.18542 34.7709 5.58333 34.7709H32.4167C33.8146 34.7709 35.1552 34.2155 36.1437 33.2271C37.1322 32.2386 37.6875 30.8979 37.6875 29.5V12.25C37.6875 10.8521 37.1322 9.51145 36.1437 8.52298C35.1552 7.53451 33.8146 6.97919 32.4167 6.97919H5.58333ZM27.625 18.4792C26.9896 18.4792 26.3802 18.7316 25.9309 19.1809C25.4816 19.6302 25.2292 20.2396 25.2292 20.875C25.2292 21.5104 25.4816 22.1198 25.9309 22.5691C26.3802 23.0184 26.9896 23.2709 27.625 23.2709C28.2604 23.2709 28.8698 23.0184 29.3191 22.5691C29.7684 22.1198 30.0208 21.5104 30.0208 20.875C30.0208 20.2396 29.7684 19.6302 29.3191 19.1809C28.8698 18.7316 28.2604 18.4792 27.625 18.4792Z" fill="url(#paint0_linear_82_1053)"/>
<path d="M27.5963 0.882258C28.1637 0.73103 28.7584 0.712216 29.3343 0.827269C29.9102 0.942321 30.452 1.18816 30.9178 1.54582C31.3836 1.90348 31.7611 2.36339 32.0209 2.89005C32.2808 3.41671 32.4162 3.99605 32.4167 4.58334H13.25L27.5963 0.882258Z" fill="url(#paint1_linear_82_1053)"/>
<defs>
<linearGradient id="paint0_linear_82_1053" x1="8.98034e-09" y1="10.0404" x2="15.9285" y2="39.966" gradientUnits="userSpaceOnUse">
<stop stop-color="#FCF5C0"/>
<stop offset="1" stop-color="#FFE200"/>
</linearGradient>
<linearGradient id="paint1_linear_82_1053" x1="13.0897" y1="1.1749" x2="13.8317" y2="6.36173" gradientUnits="userSpaceOnUse">
<stop stop-color="#FCF5C0"/>
<stop offset="1" stop-color="#FFE200"/>
</linearGradient>
</defs>
</svg>
