<svg width="18" height="18" viewBox="0 0 18 18" fill="none" xmlns="http://www.w3.org/2000/svg">
<circle cx="8.9926" cy="8.99077" r="4.00493" fill="#FFE200"/>
<path d="M14.6977 12.928C15.6184 11.5953 16.0422 9.98177 15.8955 8.36865C15.7487 6.75553 15.0405 5.24505 13.8944 4.10041C12.7483 2.95578 11.237 2.24956 9.62365 2.10482C8.01034 1.96008 6.39739 2.386 5.06586 3.30835M14.6977 12.928L13.9082 10.9558M14.6977 12.928L16.8927 12.0483M3.29382 5.08865C2.37792 6.42276 1.95867 8.03572 2.10897 9.64697C2.25928 11.2582 2.96963 12.7658 4.11648 13.9075C5.26332 15.0492 6.77409 15.7527 8.386 15.8958C9.99791 16.0388 11.609 15.6123 12.9389 14.6904M3.29382 5.08865L4.07945 7.04905M3.29382 5.08865L1.11575 5.96152" stroke="#016F2F" stroke-width="2" stroke-linecap="round" stroke-linejoin="round"/>
<path d="M14.6977 12.928C15.6184 11.5953 16.0422 9.98177 15.8955 8.36865C15.7487 6.75553 15.0405 5.24505 13.8944 4.10041C12.7483 2.95578 11.237 2.24956 9.62365 2.10482C8.01034 1.96008 6.39739 2.386 5.06586 3.30835M14.6977 12.928L13.9082 10.9558M14.6977 12.928L16.8927 12.0483M3.29382 5.08865C2.37792 6.42276 1.95867 8.03572 2.10897 9.64697C2.25928 11.2582 2.96963 12.7658 4.11648 13.9075C5.26332 15.0492 6.77409 15.7527 8.386 15.8958C9.99791 16.0388 11.609 15.6123 12.9389 14.6904M3.29382 5.08865L4.07945 7.04905M3.29382 5.08865L1.11575 5.96152" stroke="#016F2F" stroke-width="2" stroke-linecap="round" stroke-linejoin="round"/>
</svg>
