<svg width="43" height="43" viewBox="0 0 43 43" fill="none" xmlns="http://www.w3.org/2000/svg">
<path d="M30.7143 33.7857H12.2857C11.4711 33.7857 10.6899 33.4621 10.1139 32.8861C9.53788 32.3101 9.21429 31.5289 9.21429 30.7143V26.1071H12.2857V30.7143H30.7143V26.1071H33.7857V30.7143C33.7857 31.5289 33.4621 32.3101 32.8861 32.8861C32.3101 33.4621 31.5289 33.7857 30.7143 33.7857ZM0 19.9643H43V23.0357H0V19.9643ZM33.7857 16.8929H30.7143V12.2857H12.2857V16.8929H9.21429V12.2857C9.21429 11.4711 9.53788 10.6899 10.1139 10.1139C10.6899 9.53788 11.4711 9.21429 12.2857 9.21429H30.7143C31.5289 9.21429 32.3101 9.53788 32.8861 10.1139C33.4621 10.6899 33.7857 11.4711 33.7857 12.2857V16.8929ZM43 12.2857H39.9286V3.07143H30.7143V0H43V12.2857ZM3.07143 12.2857H0V0H12.2857V3.07143H3.07143V12.2857ZM12.2857 43H0V30.7143H3.07143V39.9286H12.2857V43ZM43 43H30.7143V39.9286H39.9286V30.7143H43V43Z" fill="#FFE200"/>
</svg>
