<svg width="43" height="43" viewBox="0 0 43 43" fill="none" xmlns="http://www.w3.org/2000/svg">
<circle cx="21.5" cy="21.5" r="21.5" transform="rotate(-90 21.5 21.5)" fill="#016F2F"/>
<path d="M29.8828 30.0581L22.4028 12.6081C22.326 12.4277 22.1978 12.2739 22.0342 12.1658C21.8706 12.0577 21.6789 12 21.4828 12C21.2867 12 21.095 12.0577 20.9314 12.1658C20.7678 12.2739 20.6397 12.4277 20.5628 12.6081L13.0828 30.0581C13.0169 30.2092 12.9897 30.3744 13.0035 30.5386C13.0174 30.7029 13.0719 30.8611 13.1622 30.999C13.2525 31.137 13.3757 31.2502 13.5207 31.3286C13.6657 31.407 13.828 31.4481 13.9928 31.4481L18.6028 31.4581C19.1028 31.4581 19.5328 31.0881 19.5928 30.5881L21.4828 16.4581L23.3628 30.5881C23.4328 31.0881 23.8628 31.4581 24.3628 31.4581L28.9728 31.4481C29.6828 31.4481 30.1728 30.7181 29.8828 30.0581Z" fill="#FFE200"/>
</svg>
