<svg width="70" height="70" viewBox="0 0 70 70" fill="none" xmlns="http://www.w3.org/2000/svg">
<circle cx="35" cy="35" r="35" fill="#016F2F"/>
<path d="M35.0979 52.1276C31.4046 52.1184 27.8317 50.8136 25.0017 48.4406C22.1717 46.0676 20.264 42.7769 19.611 39.1418C19.4124 36.2808 19.72 30.559 22.5391 30.559" stroke="#67DF99" stroke-width="5" stroke-linecap="round" stroke-linejoin="round"/>
<path d="M35.9021 52.1276C39.5953 52.1184 43.1683 50.8136 45.9983 48.4406C48.8283 46.0676 50.736 42.7769 51.3889 39.1418C51.5876 36.2808 51.28 30.559 48.4609 30.559" stroke="#67DF99" stroke-width="5" stroke-linecap="round" stroke-linejoin="round"/>
<path d="M35.5 29.4559C34.7004 29.4559 33.9336 29.1383 33.3683 28.5729C32.8029 28.0075 32.4853 27.2407 32.4853 26.4412C32.4853 25.6416 32.8029 24.8748 33.3683 24.3095C33.9336 23.7441 34.7004 23.4265 35.5 23.4265C36.2995 23.4265 37.0663 23.7441 37.6317 24.3095C38.1971 24.8748 38.5147 25.6416 38.5147 26.4412C38.5147 26.8371 38.4367 27.2291 38.2852 27.5948C38.1337 27.9606 37.9116 28.2929 37.6317 28.5729C37.3518 28.8528 37.0194 29.0749 36.6537 29.2264C36.2879 29.3779 35.8959 29.4559 35.5 29.4559ZM35.5 18C33.2612 18 31.1142 18.8893 29.5312 20.4724C27.9481 22.0554 27.0588 24.2024 27.0588 26.4412C27.0588 32.772 35.5 42.1176 35.5 42.1176C35.5 42.1176 43.9411 32.772 43.9411 26.4412C43.9411 24.2024 43.0518 22.0554 41.4688 20.4724C39.8858 18.8893 37.7387 18 35.5 18Z" fill="#FFE200"/>
</svg>
