<svg width="70" height="90" viewBox="0 0 70 90" fill="none" xmlns="http://www.w3.org/2000/svg">
<circle cx="35" cy="35" r="35" fill="#016F2F"/>
<path d="M35.0979 52.1276C31.4046 52.1184 27.8317 50.8136 25.0017 48.4406C22.1716 46.0676 20.2639 42.7769 19.611 39.1418C19.4124 36.2808 19.72 30.559 22.5391 30.559" stroke="#67DF99" stroke-width="5" stroke-linecap="round" stroke-linejoin="round"/>
<path d="M35.9021 52.1276C39.5954 52.1184 43.1683 50.8136 45.9983 48.4406C48.8284 46.0676 50.7361 42.7769 51.389 39.1418C51.5876 36.2808 51.28 30.559 48.4609 30.559" stroke="#67DF99" stroke-width="5" stroke-linecap="round" stroke-linejoin="round"/>
<path d="M35.5 29.4559C34.7005 29.4559 33.9337 29.1383 33.3683 28.5729C32.8029 28.0075 32.4853 27.2407 32.4853 26.4412C32.4853 25.6416 32.8029 24.8748 33.3683 24.3095C33.9337 23.7441 34.7005 23.4265 35.5 23.4265C36.2996 23.4265 37.0664 23.7441 37.6317 24.3095C38.1971 24.8748 38.5147 25.6416 38.5147 26.4412C38.5147 26.8371 38.4367 27.2291 38.2852 27.5948C38.1337 27.9606 37.9117 28.2929 37.6317 28.5729C37.3518 28.8528 37.0194 29.0749 36.6537 29.2264C36.2879 29.3779 35.8959 29.4559 35.5 29.4559ZM35.5 18C33.2613 18 31.1142 18.8893 29.5312 20.4724C27.9482 22.0554 27.0588 24.2024 27.0588 26.4412C27.0588 32.772 35.5 42.1176 35.5 42.1176C35.5 42.1176 43.9412 32.772 43.9412 26.4412C43.9412 24.2024 43.0518 22.0554 41.4688 20.4724C39.8858 18.8893 37.7387 18 35.5 18Z" fill="#FFE200"/>
<path d="M13.7347 81.794V80.2727H20.9023V81.794H18.2305V89H16.4066V81.794H13.7347ZM24.0824 89.1278C23.4091 89.1278 22.8295 88.9915 22.3438 88.7188C21.8608 88.4432 21.4886 88.054 21.2273 87.5511C20.9659 87.0455 20.8352 86.4474 20.8352 85.7571C20.8352 85.0838 20.9659 84.4929 21.2273 83.9844C21.4886 83.4759 21.8565 83.0795 22.331 82.7955C22.8082 82.5114 23.3679 82.3693 24.0099 82.3693C24.4418 82.3693 24.8438 82.4389 25.2159 82.5781C25.5909 82.7145 25.9176 82.9205 26.196 83.196C26.4773 83.4716 26.696 83.8182 26.8523 84.2358C27.0085 84.6506 27.0866 85.1364 27.0866 85.6932V86.1918H21.5597V85.0668H25.3778C25.3778 84.8054 25.321 84.5739 25.2074 84.3722C25.0938 84.1705 24.9361 84.0128 24.7344 83.8991C24.5355 83.7827 24.304 83.7244 24.0398 83.7244C23.7642 83.7244 23.5199 83.7884 23.3068 83.9162C23.0966 84.0412 22.9318 84.2102 22.8125 84.4233C22.6932 84.6335 22.6321 84.8679 22.6293 85.1264V86.196C22.6293 86.5199 22.6889 86.7997 22.8082 87.0355C22.9304 87.2713 23.1023 87.4531 23.3239 87.581C23.5455 87.7088 23.8082 87.7727 24.1122 87.7727C24.3139 87.7727 24.4986 87.7443 24.6662 87.6875C24.8338 87.6307 24.9773 87.5455 25.0966 87.4318C25.2159 87.3182 25.3068 87.179 25.3693 87.0142L27.0483 87.125C26.9631 87.5284 26.7884 87.8807 26.5241 88.1818C26.2628 88.4801 25.9247 88.7131 25.5099 88.8807C25.098 89.0455 24.6222 89.1278 24.0824 89.1278ZM28.2713 89V82.4545H30.0014V83.6094H30.0781C30.2145 83.2259 30.4418 82.9233 30.7599 82.7017C31.0781 82.4801 31.4588 82.3693 31.902 82.3693C32.3509 82.3693 32.733 82.4815 33.0483 82.706C33.3636 82.9276 33.5739 83.2287 33.679 83.6094H33.7472C33.8807 83.2344 34.1222 82.9347 34.4716 82.7102C34.8239 82.483 35.2401 82.3693 35.7202 82.3693C36.331 82.3693 36.8267 82.5639 37.2074 82.9531C37.5909 83.3395 37.7827 83.8878 37.7827 84.598V89H35.9716V84.956C35.9716 84.5923 35.875 84.3196 35.6818 84.1378C35.4886 83.956 35.2472 83.8651 34.9574 83.8651C34.6278 83.8651 34.3707 83.9702 34.1861 84.1804C34.0014 84.3878 33.9091 84.6619 33.9091 85.0028V89H32.1491V84.9176C32.1491 84.5966 32.0568 84.3409 31.8722 84.1506C31.6903 83.9602 31.4503 83.8651 31.152 83.8651C30.9503 83.8651 30.7685 83.9162 30.6065 84.0185C30.4474 84.1179 30.321 84.2585 30.2273 84.4403C30.1335 84.6193 30.0866 84.8295 30.0866 85.071V89H28.2713ZM43.4141 86.2131V82.4545H45.2294V89H43.4865V87.8111H43.4183C43.2706 88.1946 43.0249 88.5028 42.6811 88.7358C42.3402 88.9687 41.924 89.0852 41.4325 89.0852C40.995 89.0852 40.6101 88.9858 40.2777 88.7869C39.9453 88.5881 39.6854 88.3054 39.4979 87.9389C39.3132 87.5724 39.2195 87.1335 39.2166 86.6222V82.4545H41.032V86.2983C41.0348 86.6847 41.1385 86.9901 41.343 87.2145C41.5476 87.4389 41.8217 87.5511 42.1655 87.5511C42.3842 87.5511 42.5888 87.5014 42.7791 87.402C42.9695 87.2997 43.1229 87.1491 43.2393 86.9503C43.3587 86.7514 43.4169 86.5057 43.4141 86.2131ZM46.6815 89V82.4545H48.4968V89H46.6815ZM47.5934 81.6108C47.3235 81.6108 47.092 81.5213 46.8988 81.3423C46.7085 81.1605 46.6133 80.9432 46.6133 80.6903C46.6133 80.4403 46.7085 80.2259 46.8988 80.0469C47.092 79.8651 47.3235 79.7741 47.5934 79.7741C47.8633 79.7741 48.0934 79.8651 48.2837 80.0469C48.4769 80.2259 48.5735 80.4403 48.5735 80.6903C48.5735 80.9432 48.4769 81.1605 48.2837 81.3423C48.0934 81.5213 47.8633 81.6108 47.5934 81.6108ZM51.7663 85.2159V89H49.951V82.4545H51.6811V83.6094H51.7578C51.9027 83.2287 52.1456 82.9276 52.4865 82.706C52.8274 82.4815 53.2408 82.3693 53.7266 82.3693C54.1811 82.3693 54.5774 82.4688 54.9155 82.6676C55.2536 82.8665 55.5163 83.1506 55.7038 83.5199C55.8913 83.8864 55.9851 84.3239 55.9851 84.8324V89H54.1697V85.1562C54.1726 84.7557 54.0703 84.4432 53.8629 84.2188C53.6555 83.9915 53.37 83.8778 53.0064 83.8778C52.7621 83.8778 52.5462 83.9304 52.3587 84.0355C52.174 84.1406 52.0291 84.294 51.924 84.4957C51.8217 84.6946 51.7692 84.9347 51.7663 85.2159Z" fill="#016F2F"/>
</svg>
