<svg width="30" height="30" viewBox="0 0 30 30" fill="none" xmlns="http://www.w3.org/2000/svg">
<circle cx="15" cy="15" r="15" fill="#016F2F"/>
<path d="M20.1429 15.8571H15.8571V20.1429C15.8571 20.3702 15.7668 20.5882 15.6061 20.7489C15.4453 20.9097 15.2273 21 15 21C14.7727 21 14.5547 20.9097 14.3939 20.7489C14.2332 20.5882 14.1429 20.3702 14.1429 20.1429V15.8571H9.85714C9.62981 15.8571 9.4118 15.7668 9.25105 15.6061C9.09031 15.4453 9 15.2273 9 15C9 14.7727 9.09031 14.5547 9.25105 14.3939C9.4118 14.2332 9.62981 14.1429 9.85714 14.1429H14.1429V9.85714C14.1429 9.62981 14.2332 9.4118 14.3939 9.25105C14.5547 9.09031 14.7727 9 15 9C15.2273 9 15.4453 9.09031 15.6061 9.25105C15.7668 9.4118 15.8571 9.62981 15.8571 9.85714V14.1429H20.1429C20.3702 14.1429 20.5882 14.2332 20.7489 14.3939C20.9097 14.5547 21 14.7727 21 15C21 15.2273 20.9097 15.4453 20.7489 15.6061C20.5882 15.7668 20.3702 15.8571 20.1429 15.8571Z" fill="#FFE200"/>
</svg>
