<svg width="33" height="33" viewBox="0 0 33 33" fill="none" xmlns="http://www.w3.org/2000/svg">
<circle cx="16.4865" cy="16.483" r="7.34237" fill="#FFE200"/>
<path d="M26.9458 23.7014C28.6337 21.2581 29.4108 18.3 29.1417 15.3426C28.8725 12.3852 27.5743 9.616 25.4731 7.5175C23.3719 5.41901 20.6011 4.12428 17.6434 3.85892C14.6856 3.59357 11.7285 4.37441 9.28741 6.06538M26.9458 23.7014L25.4983 20.0857M26.9458 23.7014L30.9699 22.0887M6.03866 9.32927C4.35953 11.7751 3.59089 14.7322 3.86645 17.6862C4.14201 20.6401 5.44432 23.404 7.54687 25.4971C9.64942 27.5902 12.4192 28.8801 15.3743 29.1423C18.3295 29.4046 21.2831 28.6226 23.7214 26.9325M6.03866 9.32927L7.479 12.9233M6.03866 9.32927L2.04554 10.9295" stroke="#67DF99" stroke-width="2.5" stroke-linecap="round" stroke-linejoin="round"/>
</svg>
