<svg width="70" height="70" viewBox="0 0 70 70" fill="none" xmlns="http://www.w3.org/2000/svg">
<circle cx="35" cy="35" r="35" fill="#016F2F"/>
<path d="M29.9445 16.519C31.2288 15.4247 31.8721 14.8764 32.5441 14.5559C33.3111 14.1899 34.1501 14 35 14C35.8498 14 36.6889 14.1899 37.4559 14.5559C38.1279 14.8764 38.7711 15.4247 40.0554 16.519C41.3796 17.6464 42.7236 18.2167 44.492 18.356C46.1742 18.4909 47.0164 18.5594 47.7194 18.807C49.3419 19.3818 50.6196 20.6573 51.1921 22.2821C51.4397 22.9829 51.5082 23.8252 51.643 25.5097C51.7823 27.2782 52.3504 28.6201 53.4778 29.9442C54.5742 31.2286 55.1224 31.8719 55.4429 32.544C56.1857 34.0981 56.1857 35.9042 55.4429 37.456C55.1224 38.1281 54.5742 38.7714 53.48 40.0558C52.3846 41.285 51.7371 42.8487 51.643 44.4925C51.5082 46.1748 51.4397 47.0171 51.1921 47.7201C50.9083 48.5213 50.449 49.249 49.8477 49.8499C49.2465 50.4508 48.5185 50.9097 47.7171 51.193C47.0164 51.4406 46.1742 51.5091 44.4898 51.644C42.7213 51.7833 41.3796 52.3514 40.0554 53.4788C38.7711 54.5753 38.1279 55.1236 37.4559 55.4441C36.6889 55.8101 35.8498 56 35 56C34.1501 56 33.3111 55.8101 32.5441 55.4441C31.8721 55.1236 31.2288 54.5753 29.9445 53.481C28.7153 52.3855 27.1517 51.7381 25.5079 51.644C23.8257 51.5091 22.9835 51.4406 22.2806 51.193C21.4793 50.9092 20.7517 50.4498 20.1508 49.8486C19.55 49.2473 19.0911 48.5193 18.8078 47.7179C18.5602 47.0171 18.4917 46.1748 18.3569 44.4903C18.2629 42.8475 17.6163 41.2847 16.5221 40.0558C15.4257 38.7714 14.8775 38.1281 14.5548 37.456C14.1892 36.6888 13.9996 35.8496 14 34.9997C14.0004 34.1499 14.1907 33.3108 14.557 32.544C14.8775 31.8719 15.4257 31.2286 16.5199 29.9442C17.6694 28.5935 18.2198 27.2406 18.3569 25.5075C18.4917 23.8252 18.5602 22.9829 18.8078 22.2799C19.0916 21.4787 19.551 20.751 20.1522 20.1501C20.7534 19.5492 21.4814 19.0903 22.2828 18.807C22.9835 18.5594 23.8257 18.4909 25.5102 18.356C27.1529 18.262 28.7156 17.6132 29.9445 16.519Z" stroke="#67DF99" stroke-width="3" stroke-linecap="round" stroke-linejoin="round"/>
<path d="M37.3492 21.5701C36.7268 21.2729 36.0458 21.1186 35.356 21.1186C34.6662 21.1186 33.9852 21.2729 33.3628 21.5701C32.8155 21.8326 32.3141 22.2605 31.6127 22.8591L31.5029 22.9508C30.8973 23.4967 30.1225 23.8179 29.3083 23.8606L29.1666 23.8717C28.2471 23.9453 27.5901 23.9967 27.0179 24.1995C26.3675 24.4293 25.7767 24.8016 25.2888 25.2893C24.8009 25.7769 24.4283 26.3675 24.1982 27.0178C23.9968 27.59 23.9454 28.247 23.8718 29.1665L23.8607 29.3082C23.818 30.1224 23.4968 30.8972 22.9509 31.5028L22.8592 31.6112C22.2605 32.314 21.8313 32.8154 21.5702 33.3627C21.273 33.9851 21.1187 34.6662 21.1187 35.3559C21.1187 36.0457 21.273 36.7267 21.5702 37.3491C21.8327 37.8964 22.2605 38.3978 22.8592 39.0993L22.9509 39.209C23.5204 39.8757 23.7898 40.5132 23.8607 41.4036L23.8718 41.5453C23.9454 42.4648 23.9968 43.1218 24.1996 43.694C24.4294 44.3444 24.8017 44.9352 25.2893 45.4231C25.777 45.911 26.3676 46.2836 27.0179 46.5137C27.5901 46.7151 28.2471 46.7665 29.1666 46.8401L29.3083 46.8512C30.182 46.9207 30.8223 47.1818 31.5029 47.761L31.6113 47.8527C32.3141 48.4514 32.8155 48.8806 33.3628 49.1417C33.9852 49.4389 34.6662 49.5932 35.356 49.5932C36.0458 49.5932 36.7268 49.4389 37.3492 49.1417C37.8965 48.8792 38.3979 48.4514 39.0993 47.8527L39.2091 47.761C39.8758 47.1915 40.5133 46.9221 41.4037 46.8512L41.5454 46.8401C42.4649 46.7665 43.1219 46.7151 43.6941 46.5123C44.3445 46.2825 44.9353 45.9102 45.4232 45.4226C45.9111 44.9349 46.2837 44.3443 46.5138 43.694C46.7152 43.1218 46.7666 42.4648 46.8402 41.5453L46.8513 41.4036C46.9208 40.5299 47.1819 39.8896 47.7611 39.209L47.8528 39.0993C48.4515 38.3978 48.8806 37.8964 49.1418 37.3491C49.439 36.7267 49.5933 36.0457 49.5933 35.3559C49.5933 34.6662 49.439 33.9851 49.1418 33.3627C48.8793 32.8154 48.4515 32.314 47.8528 31.6126L47.7611 31.5028C47.2152 30.8972 46.894 30.1224 46.8513 29.3082L46.8402 29.1665C46.7666 28.247 46.7152 27.59 46.5124 27.0178C46.2826 26.3674 45.9103 25.7766 45.4227 25.2887C44.935 24.8008 44.3444 24.4282 43.6941 24.1981C43.1219 23.9967 42.4649 23.9453 41.5454 23.8717L41.4037 23.8606C40.5895 23.8179 39.8147 23.4967 39.2091 22.9508L39.0993 22.8591C38.3979 22.2605 37.8965 21.8313 37.3492 21.5701Z" fill="#FFE200"/>
<path d="M40.6154 38.8556C41.5309 37.5303 41.9524 35.9259 41.8065 34.3218C41.6605 32.7177 40.9563 31.2157 39.8166 30.0775C38.677 28.9392 37.174 28.237 35.5698 28.093C33.9655 27.9491 32.3616 28.3726 31.0375 29.2898M40.6154 38.8556L39.8303 36.8945M40.6154 38.8556L42.7981 37.9809M29.2754 31.0602C28.3646 32.3868 27.9477 33.9907 28.0972 35.593C28.2466 37.1952 28.953 38.6943 30.0934 39.8296C31.2339 40.9649 32.7362 41.6645 34.339 41.8068C35.9419 41.949 37.544 41.5249 38.8665 40.6082M29.2754 31.0602L30.0566 33.0096M29.2754 31.0602L27.1095 31.9281" stroke="#016F2F" stroke-width="1.5" stroke-linecap="round" stroke-linejoin="round"/>
</svg>
