<svg width="70" height="91" viewBox="0 0 70 91" fill="none" xmlns="http://www.w3.org/2000/svg">
<circle cx="35" cy="35" r="35" fill="#016F2F"/>
<path d="M29.9445 16.519C31.2288 15.4247 31.8721 14.8764 32.5441 14.5559C33.3111 14.1899 34.1501 14 35 14C35.8498 14 36.6889 14.1899 37.4559 14.5559C38.1279 14.8764 38.7711 15.4247 40.0554 16.519C41.3796 17.6464 42.7236 18.2167 44.492 18.356C46.1742 18.4909 47.0164 18.5594 47.7194 18.807C49.3419 19.3818 50.6196 20.6573 51.1921 22.2821C51.4397 22.9829 51.5082 23.8252 51.643 25.5097C51.7823 27.2782 52.3504 28.6201 53.4778 29.9442C54.5742 31.2286 55.1224 31.8719 55.4429 32.544C56.1857 34.0981 56.1857 35.9042 55.4429 37.456C55.1224 38.1281 54.5742 38.7714 53.48 40.0558C52.3846 41.285 51.7371 42.8487 51.643 44.4925C51.5082 46.1748 51.4397 47.0171 51.1921 47.7201C50.9083 48.5213 50.449 49.249 49.8477 49.8499C49.2465 50.4508 48.5185 50.9097 47.7171 51.193C47.0164 51.4406 46.1742 51.5091 44.4898 51.644C42.7213 51.7833 41.3796 52.3514 40.0554 53.4788C38.7711 54.5753 38.1279 55.1236 37.4559 55.4441C36.6889 55.8101 35.8498 56 35 56C34.1501 56 33.3111 55.8101 32.5441 55.4441C31.8721 55.1236 31.2288 54.5753 29.9445 53.481C28.7153 52.3855 27.1517 51.7381 25.5079 51.644C23.8257 51.5091 22.9835 51.4406 22.2806 51.193C21.4793 50.9092 20.7517 50.4498 20.1508 49.8486C19.55 49.2473 19.0911 48.5193 18.8078 47.7179C18.5602 47.0171 18.4917 46.1748 18.3569 44.4903C18.2629 42.8475 17.6163 41.2847 16.5221 40.0558C15.4257 38.7714 14.8775 38.1281 14.5548 37.456C14.1892 36.6888 13.9996 35.8496 14 34.9997C14.0004 34.1499 14.1907 33.3108 14.557 32.544C14.8775 31.8719 15.4257 31.2286 16.5199 29.9442C17.6694 28.5935 18.2198 27.2406 18.3569 25.5075C18.4917 23.8252 18.5602 22.9829 18.8078 22.2799C19.0916 21.4787 19.551 20.751 20.1522 20.1501C20.7534 19.5492 21.4814 19.0903 22.2828 18.807C22.9835 18.5594 23.8257 18.4909 25.5102 18.356C27.1529 18.262 28.7156 17.6132 29.9445 16.519Z" stroke="#67DF99" stroke-width="3" stroke-linecap="round" stroke-linejoin="round"/>
<path d="M37.3491 21.5702C36.7267 21.2729 36.0457 21.1187 35.3559 21.1187C34.6662 21.1187 33.9852 21.2729 33.3627 21.5702C32.8155 21.8327 32.314 22.2605 31.6126 22.8591L31.5029 22.9508C30.8973 23.4967 30.1225 23.8179 29.3083 23.8606L29.1666 23.8717C28.2471 23.9453 27.5901 23.9967 27.0178 24.1995C26.3674 24.4293 25.7766 24.8016 25.2887 25.2893C24.8009 25.7769 24.4282 26.3675 24.1981 27.0178C23.9967 27.5901 23.9453 28.2471 23.8717 29.1666L23.8606 29.3083C23.8179 30.1225 23.4967 30.8973 22.9508 31.5029L22.8591 31.6112C22.2605 32.314 21.8313 32.8155 21.5702 33.3627C21.2729 33.9852 21.1187 34.6662 21.1187 35.3559C21.1187 36.0457 21.2729 36.7267 21.5702 37.3491C21.8327 37.8964 22.2605 38.3978 22.8591 39.0993L22.9508 39.209C23.5203 39.8757 23.7898 40.5133 23.8606 41.4036L23.8717 41.5453C23.9453 42.4648 23.9967 43.1218 24.1995 43.6941C24.4293 44.3445 24.8016 44.9353 25.2893 45.4231C25.7769 45.911 26.3675 46.2836 27.0178 46.5137C27.5901 46.7151 28.2471 46.7665 29.1666 46.8402L29.3083 46.8513C30.1819 46.9207 30.8223 47.1818 31.5029 47.7611L31.6112 47.8527C32.314 48.4514 32.8155 48.8806 33.3627 49.1417C33.9852 49.439 34.6662 49.5932 35.3559 49.5932C36.0457 49.5932 36.7267 49.439 37.3491 49.1417C37.8964 48.8792 38.3978 48.4514 39.0993 47.8527L39.209 47.7611C39.8757 47.1916 40.5133 46.9221 41.4036 46.8513L41.5453 46.8402C42.4648 46.7665 43.1218 46.7151 43.6941 46.5124C44.3445 46.2826 44.9353 45.9102 45.4231 45.4226C45.911 44.935 46.2836 44.3444 46.5137 43.6941C46.7151 43.1218 46.7665 42.4648 46.8402 41.5453L46.8513 41.4036C46.9207 40.5299 47.1818 39.8896 47.7611 39.209L47.8527 39.0993C48.4514 38.3978 48.8806 37.8964 49.1417 37.3491C49.439 36.7267 49.5932 36.0457 49.5932 35.3559C49.5932 34.6662 49.439 33.9852 49.1417 33.3627C48.8792 32.8155 48.4514 32.314 47.8527 31.6126L47.7611 31.5029C47.2152 30.8973 46.894 30.1225 46.8513 29.3083L46.8402 29.1666C46.7665 28.2471 46.7151 27.5901 46.5124 27.0178C46.2826 26.3674 45.9102 25.7766 45.4226 25.2887C44.935 24.8009 44.3444 24.4282 43.6941 24.1981C43.1218 23.9967 42.4648 23.9453 41.5453 23.8717L41.4036 23.8606C40.5894 23.8179 39.8146 23.4967 39.209 22.9508L39.0993 22.8591C38.3978 22.2605 37.8964 21.8313 37.3491 21.5702Z" fill="#FFE200"/>
<path d="M40.6154 38.8556C41.5309 37.5303 41.9524 35.9259 41.8065 34.3218C41.6605 32.7177 40.9563 31.2157 39.8166 30.0775C38.677 28.9392 37.174 28.237 35.5698 28.093C33.9655 27.9491 32.3616 28.3726 31.0375 29.2898M40.6154 38.8556L39.8303 36.8945M40.6154 38.8556L42.7981 37.9809M29.2754 31.0602C28.3646 32.3868 27.9477 33.9907 28.0972 35.593C28.2466 37.1952 28.953 38.6943 30.0934 39.8296C31.2339 40.9649 32.7362 41.6645 34.339 41.8068C35.9419 41.949 37.544 41.5249 38.8665 40.6082M29.2754 31.0602L30.0566 33.0096M29.2754 31.0602L27.1095 31.9281" stroke="#016F2F" stroke-width="1.5" stroke-linecap="round" stroke-linejoin="round"/>
<path d="M12.8656 82.794V81.2727H20.0332V82.794H17.3613V90H15.5375V82.794H12.8656ZM24.4863 87.2131V83.4545H26.3017V90H24.5588V88.8111H24.4906C24.3429 89.1946 24.0971 89.5028 23.7534 89.7358C23.4125 89.9687 22.9963 90.0852 22.5048 90.0852C22.0673 90.0852 21.6824 89.9858 21.35 89.7869C21.0176 89.5881 20.7576 89.3054 20.5701 88.9389C20.3855 88.5724 20.2917 88.1335 20.2889 87.6222V83.4545H22.1042V87.2983C22.1071 87.6847 22.2108 87.9901 22.4153 88.2145C22.6199 88.4389 22.894 88.5511 23.2377 88.5511C23.4565 88.5511 23.661 88.5014 23.8514 88.402C24.0417 88.2997 24.1951 88.1491 24.3116 87.9503C24.4309 87.7514 24.4892 87.5057 24.4863 87.2131ZM29.3986 88.1165L29.4029 85.9389H29.6671L31.7637 83.4545H33.8475L31.0307 86.7443H30.6003L29.3986 88.1165ZM27.7537 90V81.2727H29.5691V90H27.7537ZM31.8446 90L29.9185 87.1491L31.1287 85.8665L33.9711 90H31.8446ZM37.4515 90.1278C36.7782 90.1278 36.1987 89.9915 35.7129 89.7188C35.2299 89.4432 34.8578 89.054 34.5964 88.5511C34.335 88.0455 34.2044 87.4474 34.2044 86.7571C34.2044 86.0838 34.335 85.4929 34.5964 84.9844C34.8578 84.4759 35.2257 84.0795 35.7001 83.7955C36.1774 83.5114 36.737 83.3693 37.3791 83.3693C37.8109 83.3693 38.2129 83.4389 38.585 83.5781C38.96 83.7145 39.2868 83.9205 39.5652 84.196C39.8464 84.4716 40.0652 84.8182 40.2214 85.2358C40.3777 85.6506 40.4558 86.1364 40.4558 86.6932V87.1918H34.9288V86.0668H38.747C38.747 85.8054 38.6902 85.5739 38.5765 85.3722C38.4629 85.1705 38.3052 85.0128 38.1035 84.8991C37.9047 84.7827 37.6731 84.7244 37.4089 84.7244C37.1333 84.7244 36.889 84.7884 36.676 84.9162C36.4657 85.0412 36.301 85.2102 36.1816 85.4233C36.0623 85.6335 36.0012 85.8679 35.9984 86.1264V87.196C35.9984 87.5199 36.0581 87.7997 36.1774 88.0355C36.2995 88.2713 36.4714 88.4531 36.693 88.581C36.9146 88.7088 37.1774 88.7727 37.4814 88.7727C37.6831 88.7727 37.8677 88.7443 38.0353 88.6875C38.2029 88.6307 38.3464 88.5455 38.4657 88.4318C38.585 88.3182 38.676 88.179 38.7385 88.0142L40.4174 88.125C40.3322 88.5284 40.1575 88.8807 39.8933 89.1818C39.6319 89.4801 39.2939 89.7131 38.8791 89.8807C38.4672 90.0455 37.9913 90.1278 37.4515 90.1278ZM41.6404 90V83.4545H43.4004V84.5966H43.4686C43.5879 84.1903 43.7882 83.8835 44.0694 83.6761C44.3507 83.4659 44.6745 83.3608 45.041 83.3608C45.1319 83.3608 45.2299 83.3665 45.335 83.3778C45.4402 83.3892 45.5325 83.4048 45.612 83.4247V85.0355C45.5268 85.0099 45.4089 84.9872 45.2583 84.9673C45.1078 84.9474 44.97 84.9375 44.845 84.9375C44.5779 84.9375 44.3393 84.9957 44.1291 85.1122C43.9217 85.2259 43.7569 85.3849 43.6348 85.5895C43.5154 85.794 43.4558 86.0298 43.4558 86.2969V90H41.6404ZM46.5506 90V83.4545H48.3659V90H46.5506ZM47.4625 82.6108C47.1926 82.6108 46.9611 82.5213 46.7679 82.3423C46.5776 82.1605 46.4824 81.9432 46.4824 81.6903C46.4824 81.4403 46.5776 81.2259 46.7679 81.0469C46.9611 80.8651 47.1926 80.7741 47.4625 80.7741C47.7324 80.7741 47.9625 80.8651 48.1529 81.0469C48.3461 81.2259 48.4426 81.4403 48.4426 81.6903C48.4426 81.9432 48.3461 82.1605 48.1529 82.3423C47.9625 82.5213 47.7324 82.6108 47.4625 82.6108ZM51.6355 86.2159V90H49.8201V83.4545H51.5502V84.6094H51.627C51.7718 84.2287 52.0147 83.9276 52.3556 83.706C52.6966 83.4815 53.1099 83.3693 53.5957 83.3693C54.0502 83.3693 54.4466 83.4688 54.7846 83.6676C55.1227 83.8665 55.3855 84.1506 55.573 84.5199C55.7605 84.8864 55.8542 85.3239 55.8542 85.8324V90H54.0389V86.1562C54.0417 85.7557 53.9395 85.4432 53.7321 85.2188C53.5247 84.9915 53.2392 84.8778 52.8755 84.8778C52.6312 84.8778 52.4153 84.9304 52.2278 85.0355C52.0431 85.1406 51.8983 85.294 51.7931 85.4957C51.6909 85.6946 51.6383 85.9347 51.6355 86.2159Z" fill="#016F2F"/>
</svg>
