<svg width="39" height="27" viewBox="0 0 39 27" fill="none" xmlns="http://www.w3.org/2000/svg">
<path d="M37.05 0H1.95C1.43283 0 0.936838 0.203189 0.571142 0.564866C0.205446 0.926543 0 1.41708 0 1.92857V9.64286H1.74135C3.68355 9.64286 5.48535 10.9562 5.79735 12.852C5.89275 13.4056 5.86476 13.9732 5.71533 14.515C5.56591 15.0568 5.29866 15.5598 4.93226 15.9888C4.56586 16.4179 4.10914 16.7626 3.59403 16.999C3.07892 17.2353 2.51784 17.3575 1.95 17.3571H0V25.0714C0 25.5829 0.205446 26.0735 0.571142 26.4351C0.936838 26.7968 1.43283 27 1.95 27H37.05C37.5672 27 38.0632 26.7968 38.4289 26.4351C38.7946 26.0735 39 25.5829 39 25.0714V17.3571H37.05C36.4822 17.3575 35.9211 17.2353 35.406 16.999C34.8909 16.7626 34.4341 16.4179 34.0677 15.9888C33.7013 15.5598 33.4341 15.0568 33.2847 14.515C33.1352 13.9732 33.1073 13.4056 33.2027 12.852C33.5147 10.9562 35.3165 9.64286 37.2587 9.64286H39V1.92857C39 1.41708 38.7946 0.926543 38.4289 0.564866C38.0632 0.203189 37.5672 0 37.05 0ZM13.65 7.71429C14.1672 7.71429 14.6632 7.91747 15.0289 8.27915C15.3946 8.64083 15.6 9.13137 15.6 9.64286C15.6 10.1543 15.3946 10.6449 15.0289 11.0066C14.6632 11.3682 14.1672 11.5714 13.65 11.5714C13.1328 11.5714 12.6368 11.3682 12.2711 11.0066C11.9054 10.6449 11.7 10.1543 11.7 9.64286C11.7 9.13137 11.9054 8.64083 12.2711 8.27915C12.6368 7.91747 13.1328 7.71429 13.65 7.71429ZM12.09 20.0571L23.79 4.62857L26.91 6.94286L15.21 22.3714L12.09 20.0571ZM25.35 19.2857C24.8328 19.2857 24.3368 19.0825 23.9711 18.7208C23.6054 18.3592 23.4 17.8686 23.4 17.3571C23.4 16.8457 23.6054 16.3551 23.9711 15.9934C24.3368 15.6318 24.8328 15.4286 25.35 15.4286C25.8672 15.4286 26.3632 15.6318 26.7289 15.9934C27.0946 16.3551 27.3 16.8457 27.3 17.3571C27.3 17.8686 27.0946 18.3592 26.7289 18.7208C26.3632 19.0825 25.8672 19.2857 25.35 19.2857Z" fill="url(#paint0_linear_82_1052)"/>
<defs>
<linearGradient id="paint0_linear_82_1052" x1="25" y1="33" x2="5" y2="-11.5" gradientUnits="userSpaceOnUse">
<stop stop-color="#FFE200"/>
<stop offset="1" stop-color="#FCF5C0"/>
</linearGradient>
</defs>
</svg>
