<svg width="18" height="14" viewBox="0 0 18 14" fill="none" xmlns="http://www.w3.org/2000/svg">
<path d="M17.9999 8C17.9999 8.20938 17.9493 8.41019 17.8593 8.55824C17.7693 8.7063 17.6472 8.78947 17.5199 8.78947H10.4799C10.3526 8.78947 10.2305 8.7063 10.1405 8.55824C10.0505 8.41019 9.99992 8.20938 9.99992 8C9.99992 7.79062 10.0505 7.58981 10.1405 7.44176C10.2305 7.2937 10.3526 7.21053 10.4799 7.21053H17.5199C17.6472 7.21053 17.7693 7.2937 17.8593 7.44176C17.9493 7.58981 17.9999 7.79062 17.9999 8ZM10.4799 4.57895H17.5199C17.6472 4.57895 17.7693 4.49577 17.8593 4.34772C17.9493 4.19966 17.9999 3.99886 17.9999 3.78947C17.9999 3.58009 17.9493 3.37929 17.8593 3.23123C17.7693 3.08318 17.6472 3 17.5199 3H10.4799C10.3526 3 10.2305 3.08318 10.1405 3.23123C10.0505 3.37929 9.99992 3.58009 9.99992 3.78947C9.99992 3.99886 10.0505 4.19966 10.1405 4.34772C10.2305 4.49577 10.3526 4.57895 10.4799 4.57895ZM17.5199 11.4211H8.48C8.3527 11.4211 8.23061 11.5042 8.14059 11.6523C8.05057 11.8003 8 12.0011 8 12.2105C8 12.4199 8.05057 12.6207 8.14059 12.7688C8.23061 12.9168 8.3527 13 8.48 13H17.5199C17.6472 13 17.7693 12.9168 17.8593 12.7688C17.9493 12.6207 17.9999 12.4199 17.9999 12.2105C17.9999 12.0011 17.9493 11.8003 17.8593 11.6523C17.7693 11.5042 17.6472 11.4211 17.5199 11.4211Z" fill="#FFE200"/>
<path d="M5.67184 1.26104C4.50186 1.26104 3.37979 1.72581 2.55249 2.55312C1.72518 3.38042 1.26041 4.50249 1.26041 5.67247C1.26041 7.47612 2.38343 9.21611 3.61612 10.5641C4.24641 11.2508 4.93414 11.8825 5.67184 12.4522C5.78192 12.3678 5.91111 12.2648 6.05942 12.1434C6.65169 11.6571 7.20911 11.1298 7.72757 10.5654C8.96025 9.21611 10.0833 7.47675 10.0833 5.67247C10.0833 4.50249 9.6185 3.38042 8.7912 2.55312C7.96389 1.72581 6.84183 1.26104 5.67184 1.26104ZM5.67184 14L5.31452 13.7542L5.31263 13.753L5.30885 13.7498L5.29624 13.741L5.24898 13.7076L5.07882 13.5834C4.21661 12.9354 3.41563 12.2098 2.68593 11.4155C1.39779 10.0051 0 7.9639 0 5.67184C2.24153e-08 4.16758 0.597567 2.72492 1.66124 1.66124C2.72492 0.597568 4.16758 0 5.67184 0C7.17611 0 8.61877 0.597568 9.68244 1.66124C10.7461 2.72492 11.3437 4.16758 11.3437 5.67184C11.3437 7.9639 9.94589 10.0058 8.65775 11.4143C7.92826 12.2085 7.12749 12.9342 6.2655 13.5822C6.19369 13.6358 6.12121 13.6885 6.04808 13.7404L6.03484 13.7492L6.03106 13.7523L6.0298 13.753L5.67184 14ZM5.67184 4.41206C5.33756 4.41206 5.01697 4.54486 4.7806 4.78123C4.54423 5.0176 4.41143 5.33819 4.41143 5.67247C4.41143 6.00675 4.54423 6.32734 4.7806 6.56372C5.01697 6.80009 5.33756 6.93288 5.67184 6.93288C6.00612 6.93288 6.32671 6.80009 6.56309 6.56372C6.79946 6.32734 6.93225 6.00675 6.93225 5.67247C6.93225 5.33819 6.79946 5.0176 6.56309 4.78123C6.32671 4.54486 6.00612 4.41206 5.67184 4.41206ZM3.15102 5.67247C3.15102 5.00391 3.41661 4.36273 3.88936 3.88998C4.3621 3.41724 5.00328 3.15165 5.67184 3.15165C6.34041 3.15165 6.98159 3.41724 7.45433 3.88998C7.92708 4.36273 8.19266 5.00391 8.19266 5.67247C8.19266 6.34104 7.92708 6.98222 7.45433 7.45496C6.98159 7.92771 6.34041 8.19329 5.67184 8.19329C5.00328 8.19329 4.3621 7.92771 3.88936 7.45496C3.41661 6.98222 3.15102 6.34104 3.15102 5.67247Z" fill="#016F2F"/>
<circle cx="5.6717" cy="5.67182" r="1.87082" stroke="#FFE200" stroke-width="1.3"/>
</svg>
