<svg width="22" height="18" viewBox="0 0 22 18" fill="none" xmlns="http://www.w3.org/2000/svg">
<path d="M1.68937 6.98484L0.844683 7.85014L0 6.98484L0.844683 6.11953L1.68937 6.98484ZM22 16.7761C22 17.1007 21.8741 17.412 21.6501 17.6415C21.426 17.8711 21.1221 18 20.8053 18C20.4884 18 20.1845 17.8711 19.9604 17.6415C19.7364 17.412 19.6105 17.1007 19.6105 16.7761H22ZM6.8184 13.9697L0.844683 7.85014L2.53405 6.11953L8.50777 12.2391L6.8184 13.9697ZM0.844683 6.11953L6.8184 0L8.50777 1.7306L2.53405 7.85014L0.844683 6.11953ZM1.68937 5.76093H13.6368V8.20874H1.68937V5.76093ZM22 14.3283V16.7761H19.6105V14.3283H22ZM13.6368 5.76093C15.8549 5.76093 17.9821 6.66356 19.5505 8.27025C21.1189 9.87694 22 12.0561 22 14.3283H19.6105C19.6105 12.7053 18.9811 11.1487 17.8609 10.0011C16.7406 8.85348 15.2211 8.20874 13.6368 8.20874V5.76093Z" fill="white"/>
</svg>
