<svg width="18" height="14" viewBox="0 0 18 14" fill="none" xmlns="http://www.w3.org/2000/svg">
<path d="M4.30762 8.75C4.55166 8.75 4.75608 8.83404 4.9209 9.00195C5.08574 9.16995 5.16837 9.37767 5.16895 9.625C5.16952 9.87233 5.08729 10.08 4.92188 10.248C4.75647 10.416 4.55169 10.5 4.30762 10.5C4.06475 10.5011 3.86029 10.4175 3.69434 10.249C3.52835 10.0804 3.44571 9.87233 3.44629 9.625C3.44686 9.37767 3.52949 9.16995 3.69434 9.00195C3.85915 8.83401 4.06357 8.75002 4.30762 8.75ZM12.9229 7.875C13.1669 7.875 13.3713 7.95909 13.5361 8.12695C13.701 8.29495 13.7836 8.50267 13.7842 8.75C13.7848 8.99733 13.7025 9.20505 13.5371 9.37305C13.3717 9.54095 13.1669 9.625 12.9229 9.625H7.75391C7.51104 9.62617 7.30658 9.54249 7.14062 9.37402C6.97464 9.20544 6.892 8.99733 6.89258 8.75C6.89315 8.50267 6.97578 8.29495 7.14062 8.12695C7.30545 7.95903 7.50986 7.875 7.75391 7.875H12.9229ZM4.30762 3.5C4.55108 3.50058 4.75551 3.58462 4.9209 3.75195C5.08631 3.91937 5.16895 4.12708 5.16895 4.375V7C5.16952 7.24733 5.08729 7.45505 4.92188 7.62305C4.75647 7.791 4.55169 7.875 4.30762 7.875C4.06417 7.87557 3.85972 7.79194 3.69434 7.62402C3.52892 7.45602 3.44629 7.24792 3.44629 7V4.375C3.44629 4.12825 3.52892 3.92054 3.69434 3.75195C3.85973 3.58342 4.06415 3.49943 4.30762 3.5ZM12.9229 4.375C13.1669 4.375 13.3713 4.45909 13.5361 4.62695C13.701 4.79495 13.7836 5.00267 13.7842 5.25C13.7848 5.49733 13.7025 5.70505 13.5371 5.87305C13.3717 6.04095 13.1669 6.125 12.9229 6.125H7.75391C7.51104 6.12617 7.30658 6.04249 7.14062 5.87402C6.97464 5.70544 6.892 5.49733 6.89258 5.25C6.89315 5.00267 6.97578 4.79495 7.14062 4.62695C7.30545 4.45903 7.50986 4.375 7.75391 4.375H12.9229Z" fill="#FFE200"/>
<rect x="0.5" y="0.5" width="16.2308" height="13" rx="4.5" stroke="#016F2F"/>
</svg>
