<svg width="28" height="28" viewBox="0 0 28 28" fill="none" xmlns="http://www.w3.org/2000/svg">
<path d="M10.8704 2.55935C11.6654 1.88195 12.0637 1.54256 12.4797 1.34413C12.9545 1.11758 13.4739 1 14 1C14.5261 1 15.0455 1.11758 15.5203 1.34413C15.9363 1.54256 16.3345 1.88195 17.1296 2.55935C17.9492 3.25729 18.7813 3.61036 19.876 3.69658C20.9174 3.78006 21.4387 3.82248 21.8739 3.97575C22.8783 4.33156 23.6693 5.12118 24.0237 6.12703C24.1769 6.56084 24.2194 7.08224 24.3028 8.12504C24.389 9.21983 24.7407 10.0505 25.4386 10.8702C26.1174 11.6653 26.4567 12.0636 26.6552 12.4796C27.1149 13.4417 27.1149 14.5597 26.6552 15.5204C26.4567 15.9364 26.1174 16.3347 25.44 17.1298C24.7619 17.8907 24.3611 18.8587 24.3028 19.8763C24.2194 20.9178 24.1769 21.4392 24.0237 21.8743C23.848 22.3704 23.5636 22.8208 23.1914 23.1928C22.8193 23.5648 22.3686 23.8489 21.8725 24.0242C21.4387 24.1775 20.9174 24.2199 19.8746 24.3034C18.7799 24.3896 17.9492 24.7413 17.1296 25.4393C16.3345 26.1181 15.9363 26.4574 15.5203 26.6559C15.0455 26.8824 14.5261 27 14 27C13.4739 27 12.9545 26.8824 12.4797 26.6559C12.0637 26.4574 11.6654 26.1181 10.8704 25.4406C10.1095 24.7625 9.14154 24.3617 8.12397 24.3034C7.08259 24.2199 6.56123 24.1775 6.12607 24.0242C5.63007 23.8485 5.17963 23.5642 4.80767 23.192C4.43571 22.8198 4.15166 22.3691 3.97627 21.873C3.82301 21.4392 3.78059 20.9178 3.69711 19.875C3.63894 18.858 3.23867 17.8905 2.56132 17.1298C1.88258 16.3347 1.54322 15.9364 1.34343 15.5204C1.1171 15.0455 0.999764 14.526 1 13.9998C1.00024 13.4737 1.11804 12.9543 1.34479 12.4796C1.54322 12.0636 1.88258 11.6653 2.55995 10.8702C3.27153 10.0341 3.61227 9.19657 3.69711 8.12367C3.78059 7.08224 3.82301 6.56084 3.97627 6.12566C4.15197 5.62964 4.43632 5.17917 4.80851 4.80719C5.1807 4.43522 5.63133 4.15114 6.12744 3.97575C6.56123 3.82248 7.08259 3.78006 8.12533 3.69658C9.14226 3.6384 10.1097 3.23674 10.8704 2.55935Z" stroke="white" stroke-width="1.5" stroke-linecap="round" stroke-linejoin="round"/>
<path d="M9.66623 13.4583C9.80429 13.4585 9.93708 13.5113 10.0375 13.6061C10.1379 13.7009 10.1983 13.8304 10.2064 13.9682C10.2145 14.1061 10.1696 14.2418 10.081 14.3476C9.99239 14.4535 9.8667 14.5215 9.7296 14.5379L9.66623 14.5416H9.12456C8.9865 14.5415 8.85371 14.4886 8.75332 14.3939C8.65293 14.2991 8.59252 14.1695 8.58443 14.0317C8.57634 13.8939 8.62118 13.7582 8.70979 13.6523C8.7984 13.5464 8.92409 13.4784 9.06119 13.4621L9.12456 13.4583H9.66623ZM13.9996 8.58331C14.1322 8.58333 14.2603 8.63204 14.3594 8.7202C14.4586 8.80836 14.5219 8.92984 14.5374 9.0616L14.5412 9.12498V9.66665C14.5411 9.80471 14.4882 9.9375 14.3934 10.0379C14.2987 10.1383 14.1691 10.1987 14.0313 10.2068C13.8935 10.2149 13.7578 10.17 13.6519 10.0814C13.546 9.99281 13.478 9.86711 13.4617 9.73002L13.4579 9.66665V9.12498C13.4579 8.98132 13.515 8.84355 13.6165 8.74196C13.7181 8.64038 13.8559 8.58331 13.9996 8.58331ZM18.8746 13.4583C19.0126 13.4585 19.1454 13.5113 19.2458 13.6061C19.3462 13.7009 19.4066 13.8304 19.4147 13.9682C19.4228 14.1061 19.3779 14.2418 19.2893 14.3476C19.2007 14.4535 19.075 14.5215 18.9379 14.5379L18.8746 14.5416H18.3329C18.1948 14.5415 18.062 14.4886 17.9617 14.3939C17.8613 14.2991 17.8009 14.1695 17.7928 14.0317C17.7847 13.8939 17.8295 13.7582 17.9181 13.6523C18.0067 13.5464 18.1324 13.4784 18.2695 13.4621L18.3329 13.4583H18.8746ZM10.1499 10.1504C10.2432 10.0571 10.3673 10.0011 10.4989 9.99279C10.6306 9.98451 10.7607 10.0246 10.8649 10.1054L10.9159 10.1504L11.295 10.5295C11.3922 10.627 11.4486 10.7578 11.4528 10.8954C11.457 11.0329 11.4087 11.1669 11.3176 11.2701C11.2266 11.3734 11.0997 11.4381 10.9627 11.4511C10.8257 11.4642 10.6889 11.4246 10.58 11.3404L10.5291 11.2954L10.1499 10.9163C10.0484 10.8147 9.99134 10.6769 9.99134 10.5333C9.99134 10.3897 10.0484 10.2519 10.1499 10.1504ZM17.0833 10.1504C17.1807 10.0532 17.3115 9.99681 17.4491 9.99261C17.5867 9.98841 17.7207 10.0367 17.8239 10.1277C17.9271 10.2188 17.9918 10.3457 18.0049 10.4827C18.0179 10.6197 17.9783 10.7565 17.8941 10.8654L17.8492 10.9163L17.47 11.2954C17.3725 11.3926 17.2417 11.449 17.1042 11.4532C16.9666 11.4574 16.8326 11.4091 16.7294 11.3181C16.6262 11.227 16.5615 11.1001 16.5484 10.9631C16.5354 10.8261 16.575 10.6893 16.6591 10.5804L16.7041 10.5295L17.0833 10.1504ZM15.0829 17.25C15.2266 17.25 15.3643 17.307 15.4659 17.4086C15.5675 17.5102 15.6246 17.648 15.6246 17.7916C15.6246 18.2226 15.4534 18.6359 15.1486 18.9407C14.8439 19.2454 14.4305 19.4166 13.9996 19.4166C13.5686 19.4166 13.1553 19.2454 12.8505 18.9407C12.5458 18.6359 12.3746 18.2226 12.3746 17.7916C12.3746 17.659 12.4233 17.5309 12.5114 17.4318C12.5996 17.3326 12.7211 17.2693 12.8529 17.2538L12.9162 17.25H15.0829ZM13.9996 10.75C14.6817 10.75 15.3465 10.9646 15.8999 11.3634C16.4532 11.7623 16.8671 12.3251 17.0828 12.9722C17.2985 13.6194 17.3051 14.3179 17.1017 14.969C16.8983 15.6201 16.4953 16.1907 15.9496 16.6C15.8749 16.6561 15.787 16.6919 15.6944 16.704L15.6246 16.7083H12.3746C12.2574 16.7083 12.1433 16.6703 12.0496 16.6C11.5039 16.1907 11.1008 15.6201 10.8974 14.969C10.694 14.3179 10.7006 13.6194 10.9163 12.9722C11.132 12.3251 11.5459 11.7623 12.0993 11.3634C12.6526 10.9646 13.3174 10.75 13.9996 10.75Z" fill="white"/>
</svg>
