<svg width="18" height="18" viewBox="0 0 18 18" fill="none" xmlns="http://www.w3.org/2000/svg">
<path d="M13 4.5V3C13 1.89543 12.1046 1 11 1H3C1.89543 1 1 1.89543 1 3V3V7.5" stroke="#FFE200" stroke-width="1.4"/>
<path d="M4.2002 7.20001H7.4002" stroke="#016F2F" stroke-width="1.5" stroke-linecap="round" stroke-linejoin="round"/>
<path d="M16.0663 8H13.9847C12.5567 8 11.3999 9.0744 11.3999 10.4C11.3999 11.7256 12.5575 12.8 13.9839 12.8H16.0663C16.1335 12.8 16.1663 12.8 16.1943 12.7984C16.6263 12.772 16.9703 12.4528 16.9983 12.052C16.9999 12.0264 16.9999 11.9952 16.9999 11.9336V8.8664C16.9999 8.8048 16.9999 8.7736 16.9983 8.748C16.9695 8.3472 16.6263 8.028 16.1943 8.0016C16.1671 8 16.1335 8 16.0663 8Z" stroke="#016F2F" stroke-width="1.5"/>
<path d="M16.172 8C16.1096 6.5024 15.9096 5.584 15.2624 4.9376C14.3256 4 12.8168 4 9.8 4H7.4C4.3832 4 2.8744 4 1.9376 4.9376C1.0008 5.8752 1 7.3832 1 10.4C1 13.4168 1 14.9256 1.9376 15.8624C2.8752 16.7992 4.3832 16.8 7.4 16.8H9.8C12.8168 16.8 14.3256 16.8 15.2624 15.8624C15.9096 15.216 16.1104 14.2976 16.172 12.8" stroke="#016F2F" stroke-width="1.5"/>
<path d="M13.793 10.4H13.801" stroke="#016F2F" stroke-width="2" stroke-linecap="round" stroke-linejoin="round"/>
</svg>
