<svg width="17" height="14" viewBox="0 0 17 14" fill="none" xmlns="http://www.w3.org/2000/svg">
<path d="M1.22967 7H5.83333V9.33333H10.5V7H15.1037L11.9922 1.16667H4.34117L1.22967 7ZM15.1667 8.16667H11.6667V10.5H4.66667V8.16667H1.16667V12.8333H15.1667V8.16667ZM3.8605 0H12.4728C12.5811 3.63223e-06 12.6872 0.0301238 12.7793 0.0869908C12.8714 0.143858 12.9458 0.225229 12.9943 0.322L16.2727 6.87633C16.3129 6.95755 16.3337 7.04702 16.3333 7.13767V13.4167C16.3333 13.5714 16.2719 13.7197 16.1625 13.8291C16.0531 13.9385 15.9047 14 15.75 14H0.583333C0.428624 14 0.280251 13.9385 0.170854 13.8291C0.0614581 13.7197 0 13.5714 0 13.4167V7.13767C6.07592e-06 7.04693 0.0211782 6.95745 0.0618333 6.87633L3.339 0.322C3.38749 0.225229 3.46195 0.143858 3.55405 0.0869908C3.64615 0.0301238 3.75226 3.63223e-06 3.8605 0Z" fill="#016F2F"/>
<path d="M3.66642 5L12.9998 5" stroke="#FFE200"/>
<line x1="5.8335" y1="3" x2="10.5002" y2="3" stroke="#FFE200"/>
</svg>
