<svg width="17" height="17" viewBox="0 0 17 17" fill="none" xmlns="http://www.w3.org/2000/svg">
<circle cx="8.30884" cy="8.30725" r="3.70044" fill="#FFE200"/>
<path d="M13.5803 11.945C14.431 10.7136 14.8226 9.22282 14.687 7.73234C14.5513 6.24186 13.897 4.84622 12.8381 3.78861C11.7791 2.731 10.3826 2.07848 8.89199 1.94474C7.40134 1.81101 5.91101 2.20454 4.68071 3.05676M13.5803 11.945L12.8508 10.1228M13.5803 11.945L15.6084 11.1323M3.04339 4.70171C2.19714 5.9344 1.80976 7.42473 1.94863 8.91347C2.08751 10.4022 2.74386 11.7952 3.80351 12.8501C4.86316 13.905 6.25907 14.555 7.74843 14.6872C9.23779 14.8194 10.7264 14.4253 11.9552 13.5735M3.04339 4.70171L3.7693 6.51307M3.04339 4.70171L1.03092 5.50822" stroke="#016F2F" stroke-linecap="round" stroke-linejoin="round"/>
</svg>
