<svg width="16" height="16" viewBox="0 0 16 16" fill="none" xmlns="http://www.w3.org/2000/svg">
<path d="M8 16C6.89897 16 5.86193 15.7896 4.88889 15.3689C3.91586 14.9476 3.06845 14.3757 2.34667 13.6533C1.62489 12.931 1.05304 12.0836 0.631116 11.1111C0.20919 10.1387 -0.00118021 9.10163 4.97977e-06 8C4.97977e-06 6.89541 0.210375 5.85748 0.631116 4.88622C1.05245 3.91437 1.6243 3.06785 2.34667 2.34667C3.06904 1.62548 3.91645 1.05363 4.88889 0.631111C5.86193 0.21037 6.89897 0 8 0C9.1046 0 10.1425 0.21037 11.1138 0.631111C12.0856 1.05244 12.9324 1.6243 13.6542 2.34667C14.376 3.06904 14.9476 3.91555 15.3689 4.88622C15.7896 5.85807 16 6.896 16 8C16 9.10103 15.7896 10.1381 15.3689 11.1111C14.9476 12.0841 14.3757 12.9316 13.6533 13.6533C12.931 14.3751 12.0844 14.947 11.1138 15.3689C10.1431 15.7908 9.10519 16.0012 8 16ZM8 15.1182C8.52148 14.448 8.95171 13.7899 9.29067 13.144C9.62904 12.4981 9.9043 11.7751 10.1164 10.9751H5.88356C6.11882 11.8201 6.39971 12.5656 6.72623 13.2116C7.05334 13.8575 7.47793 14.493 8 15.1182ZM6.86845 14.9849C6.45363 14.496 6.07497 13.8916 5.73245 13.1716C5.38993 12.4521 5.13511 11.7197 4.968 10.9742H1.55912C2.06875 12.0794 2.79082 12.9861 3.72534 13.6942C4.66045 14.4018 5.70815 14.832 6.86845 14.9849ZM9.13156 14.9849C10.2919 14.832 11.3396 14.4018 12.2747 13.6942C13.2092 12.9861 13.9313 12.0794 14.4409 10.9742H11.0329C10.8077 11.731 10.5241 12.469 10.1822 13.1884C9.83971 13.9084 9.48948 14.5078 9.13156 14.9849ZM1.19645 10.0862H4.78311C4.71556 9.72118 4.66815 9.36563 4.64089 9.01955C4.61245 8.67407 4.59823 8.33422 4.59823 8C4.59823 7.66578 4.61215 7.32592 4.64 6.98044C4.66786 6.63496 4.71526 6.27941 4.78223 5.91378H1.19734C1.10075 6.22192 1.02519 6.55763 0.970671 6.92089C0.916153 7.28355 0.888894 7.64326 0.888894 8C0.888894 8.35674 0.915857 8.71674 0.969783 9.08C1.02371 9.44326 1.09926 9.77837 1.19645 10.0853M5.672 10.0853H10.328C10.3956 9.72089 10.443 9.37126 10.4702 9.03644C10.4987 8.70222 10.5129 8.35674 10.5129 8C10.5129 7.64326 10.499 7.29778 10.4711 6.96355C10.4433 6.62933 10.3959 6.2797 10.3289 5.91466H5.67111C5.60415 6.27911 5.55674 6.62874 5.52889 6.96355C5.50104 7.29778 5.48711 7.64326 5.48711 8C5.48711 8.35674 5.50104 8.70222 5.52889 9.03644C5.55674 9.37066 5.60504 9.72029 5.672 10.0853ZM11.2178 10.0853H14.8036C14.9001 9.77777 14.9757 9.44266 15.0302 9.08C15.0841 8.71674 15.1111 8.35674 15.1111 8C15.1111 7.64326 15.0841 7.28326 15.0302 6.92C14.9763 6.55674 14.9007 6.22163 14.8036 5.91466H11.2169C11.2844 6.27911 11.3319 6.63437 11.3591 6.98044C11.3876 7.32652 11.4018 7.66637 11.4018 8C11.4018 8.33363 11.3879 8.67348 11.36 9.01955C11.3321 9.36563 11.2847 9.72118 11.2178 10.0862M11.0329 5.02578H14.4409C13.92 3.89748 13.2065 2.99081 12.3004 2.30578C11.3944 1.62074 10.3381 1.18489 9.13156 0.998222C9.54637 1.544 9.91941 2.1683 10.2507 2.87111C10.5819 3.57333 10.8427 4.29155 11.0329 5.02578ZM5.88356 5.02578H10.1164C9.88178 4.19141 9.5923 3.43704 9.248 2.76267C8.90371 2.0883 8.48771 1.46133 8 0.881778C7.5123 1.46074 7.0963 2.0877 6.752 2.76267C6.40771 3.43763 6.11763 4.192 5.88356 5.02578ZM1.56 5.02578H4.968C5.15823 4.29215 5.41897 3.57392 5.75023 2.87111C6.08148 2.1683 6.45452 1.544 6.86934 0.998222C5.65215 1.18548 4.59319 1.624 3.69245 2.31378C2.79171 3.00474 2.0806 3.90844 1.55912 5.02489" fill="#FFE200"/>
<circle cx="8" cy="8" r="7.4" stroke="#016F2F" stroke-width="1.2"/>
</svg>
